<svg width="185" height="185" viewBox="0 0 185 185" fill="none" xmlns="http://www.w3.org/2000/svg">
<path fill-rule="evenodd" clip-rule="evenodd" d="M100.557 58.0444C85.4701 55.5909 70.3173 62.7844 64.5523 74.1366L62.8869 77.4161L59.2565 76.8257C48.2811 75.0409 37.937 82.491 36.1521 93.4667C34.3672 104.442 41.8177 114.786 52.793 116.571L127.316 128.69C135.547 130.029 143.305 124.441 144.644 116.209C145.982 107.978 140.394 100.22 132.163 98.8811L127.195 98.0732L128.003 93.105C130.629 76.9593 118.721 60.9982 100.557 58.0444ZM57.3281 66.523C66.2663 52.6009 84.7364 45.2724 102.173 48.1081C123.585 51.5902 139.273 69.6973 138.407 90.1529C149.521 94.2158 156.55 105.713 154.58 117.825C152.349 131.545 139.419 140.858 125.7 138.626L51.1771 126.507C34.7141 123.83 23.5384 108.314 26.2157 91.8508C28.6999 76.5753 42.2371 65.8523 57.3281 66.523Z" fill="#CCCCCC" fill-opacity="0.25"/>
</svg>
