<svg width="145" height="145" viewBox="0 0 145 145" fill="none" xmlns="http://www.w3.org/2000/svg">
<path d="M62.2279 30.7775C54.4341 32.6712 49.6341 40.5527 51.5277 48.3461C53.4213 56.1396 61.3024 60.9396 69.0962 59.046C76.8897 57.1524 81.6901 49.2712 79.7966 41.4777C77.903 33.6842 70.0214 28.884 62.2279 30.7775ZM67.4609 52.3151C63.3783 53.3071 59.2504 50.793 58.2586 46.7108C57.2666 42.6282 59.7807 38.5003 63.8633 37.5084C67.9459 36.5164 72.0737 39.0305 73.0657 43.1131C74.0574 47.195 71.5431 51.3233 67.4609 52.3151Z" fill="#CCCCCC" fill-opacity="0.25"/>
<path d="M126.323 55.6365L102.279 61.4783L89.7772 10.0252C89.3255 8.16607 87.4532 7.02573 85.5941 7.47744L30.7747 20.7968C28.916 21.2484 27.7753 23.1208 28.227 24.9799L40.7285 76.4335L16.6847 82.2753C14.826 82.7269 13.6852 84.5994 14.1369 86.4585L27.4562 141.277C27.9079 143.137 29.7806 144.277 31.6393 143.825C36.4507 142.656 136.466 118.356 141.277 117.187C143.136 116.735 144.277 114.863 143.825 113.004L130.506 58.1842C130.054 56.3255 128.181 55.1848 126.323 55.6365ZM35.7755 26.7099L83.8641 15.026L95.5479 63.1141C88.5679 64.81 54.4251 73.1056 47.4594 74.7981L35.7755 26.7099ZM81.4578 124.592L33.3693 136.276L21.6854 88.1881C28.6654 86.4922 62.8082 78.1966 69.7739 76.5042L81.4578 124.592ZM136.276 111.273L88.1886 122.957L76.5048 74.8688C83.4685 73.1768 117.612 64.8811 124.593 63.1849L136.277 111.273L136.276 111.273Z" fill="#CCCCCC" fill-opacity="0.25"/>
<path d="M99.0563 109.822L120.594 104.589C122.453 104.137 123.593 102.265 123.142 100.406L117.909 78.8682C117.457 77.0091 115.585 75.8687 113.726 76.3204L92.1879 81.5534C90.3288 82.0051 89.1886 83.8778 89.6402 85.7365L94.8731 107.274C95.3248 109.133 97.1972 110.274 99.0563 109.822ZM97.1888 87.4669L111.995 83.8695L115.593 98.6762L100.786 102.274L97.1888 87.4669Z" fill="#CCCCCC" fill-opacity="0.25"/>
<path d="M42.4633 126.137L68.7245 119.756C71.3136 119.127 72.249 115.924 70.4124 114L51.756 94.4471C49.9159 92.5189 46.6754 93.3112 45.9272 95.8633L38.3224 121.797C37.5728 124.353 39.8785 126.765 42.4633 126.137ZM50.8857 103.568L61.2603 114.441L46.6574 117.989L50.8857 103.568Z" fill="#CCCCCC" fill-opacity="0.25"/>
</svg>
