<svg width="175" height="175" viewBox="0 0 175 175" fill="none" xmlns="http://www.w3.org/2000/svg">
<path fill-rule="evenodd" clip-rule="evenodd" d="M156.386 73.6867L144.787 67.8871C145.146 66.2766 145.416 64.6327 145.592 62.9608L156.386 57.5636C159.988 55.7626 161.448 51.3827 159.647 47.7808C157.846 44.1789 153.466 42.7189 149.864 44.5198L144.416 47.2441C139.507 28.4515 122.415 14.5834 102.083 14.5834C77.921 14.5834 58.3334 34.1709 58.3334 58.3334C58.3334 62.0855 58.8059 65.7273 59.694 69.2026L23.9422 58.6325L14.5834 55.8656V65.625V103.265C14.5834 135.362 42.5644 160.417 75.8421 160.417H96.7342C120.393 160.417 140.231 141.692 138.431 118.404C137.709 109.069 133.518 100.641 127.056 94.2609C131.94 90.8593 136.099 86.4872 139.251 81.4239L149.864 86.73C153.466 88.5311 157.846 87.0713 159.647 83.4692C161.448 79.8671 159.988 75.4878 156.386 73.6867ZM102.083 29.1667C116.715 29.1667 128.83 39.9405 130.929 53.9877L120.698 59.1032C118.227 60.3384 116.667 62.8632 116.667 65.625C116.667 68.3869 118.227 70.9117 120.698 72.1469L126.121 74.8585C120.861 82.4943 112.057 87.5 102.083 87.5C85.9753 87.5 72.9167 74.4414 72.9167 58.3334C72.9167 42.2251 85.9753 29.1667 102.083 29.1667ZM69.2344 87.2302C77.2516 96.3375 88.9963 102.083 102.083 102.083C105.527 102.083 108.877 101.685 112.091 100.933C118.984 105.19 123.314 112.068 123.891 119.528C124.944 133.156 113.135 145.833 96.7342 145.833H75.8421C49.5097 145.833 29.1667 126.242 29.1667 103.265V75.3842L69.2344 87.2302ZM94.7917 76.5625C88.7513 76.5625 83.8542 71.6657 83.8542 65.625C83.8542 59.5844 88.7513 54.6875 94.7917 54.6875C100.833 54.6875 105.729 59.5844 105.729 65.625C105.729 71.6657 100.833 76.5625 94.7917 76.5625Z" fill="#EEC759"/>
</svg>
