<svg width="118" height="118" viewBox="0 0 118 118" fill="none" xmlns="http://www.w3.org/2000/svg">
<path d="M45.3888 42.37C35.7141 44.559 30.8767 45.6535 29.7259 49.3546C28.575 53.0553 31.8728 56.912 38.4684 64.6243L40.1747 66.6199C42.049 68.8113 42.9861 69.9072 43.4077 71.2632C43.8293 72.6188 43.6876 74.081 43.4043 77.0049L43.1463 79.6673C42.1491 89.9579 41.6505 95.1032 44.6636 97.3904C47.6766 99.6776 52.2056 97.592 61.2641 93.4212L63.6079 92.3425C66.1818 91.157 67.4689 90.5646 68.8333 90.5646C70.1977 90.5646 71.4849 91.157 74.0588 92.3425L76.4025 93.4212C85.461 97.592 89.9902 99.6776 93.0032 97.3904C96.0161 95.1032 95.5176 89.9579 94.5205 79.6673M99.1982 64.6243C105.794 56.912 109.091 53.0553 107.941 49.3546C106.79 45.6535 101.952 44.559 92.278 42.37L89.7749 41.8037C87.0255 41.1817 85.6508 40.8707 84.547 40.0328C83.4437 39.1949 82.7357 37.925 81.3197 35.3853L80.031 33.073C75.0485 24.1355 72.5577 19.6667 68.8333 19.6667C65.1089 19.6667 62.6182 24.1355 57.6356 33.073" stroke="white" stroke-width="3.75" stroke-linecap="round"/>
<path d="M10.2703 78.6667C15.7552 74.345 23.0414 72.7525 29.9369 74.3681" stroke="white" stroke-width="3.75" stroke-linecap="round"/>
<path d="M10.2703 51.6251C15.1869 49.1667 16.6115 49.4642 20.1036 49.1667" stroke="white" stroke-width="3.75" stroke-linecap="round"/>
<path d="M9.83325 27.576L10.8567 26.9767C21.7012 20.6258 33.189 18.9139 44.019 22.0347L45.0411 22.3292" stroke="white" stroke-width="3.75" stroke-linecap="round"/>
</svg>
