<svg width="153" height="152" viewBox="0 0 153 152" fill="none" xmlns="http://www.w3.org/2000/svg">
<g clip-path="url(#clip0_73_160)">
<path d="M91.4975 117.126C93.5838 117.126 95.0843 117.034 96.5693 117.146C99.1481 117.338 100.451 118.561 100.742 121.136C100.874 122.726 100.912 124.324 100.856 125.919C100.82 131.875 100.768 137.83 100.702 143.784C100.647 148.719 98.7573 150.136 93.7421 150.193C84.6367 150.294 75.5365 150.795 66.4325 151.096C63.3271 151.198 60.2155 151.312 57.1127 151.22C54.0718 151.13 52.4735 149.577 52.5385 146.615C52.7007 139.17 52.8855 131.719 53.3502 124.287C53.6637 119.27 54.4844 118.724 59.6587 118.281C60.0212 118.198 60.3737 118.076 60.7105 117.919C59.6683 113.676 58.6351 109.47 57.5833 105.186C57.0527 105.046 56.5048 104.981 55.956 104.994C50.3196 106.021 47.0051 102.756 44.1335 98.7065C38.5551 90.8409 35.6094 81.8182 32.75 72.7838C29.2154 61.6167 27.4992 50.1798 28.5369 38.4626C29.1444 31.331 31.3199 24.4186 34.9097 18.2132C39.8212 9.72247 47.2974 4.48748 56.8417 2.2978C69.3434 -0.569758 81.9357 -0.935534 94.4206 2.24027C105.643 5.09503 113.861 11.829 118.768 22.3432C126.818 39.6016 126.759 57.153 120.318 74.8041C118.54 79.9303 116.32 84.8942 113.682 89.6406C111.108 94.0916 107.764 98.154 104.377 102.06C103.376 103.216 101.077 103.741 99.3817 103.723C96.0518 103.686 94.662 105.12 94.073 108.225C93.5252 111.122 92.4502 113.919 91.4975 117.126ZM81.6576 6.29918C83.5656 11.4536 85.8244 16.2902 87.1524 21.3679C92.604 42.2159 92.4907 63.4726 91.3295 84.7733C91.1061 88.8662 90.6974 92.9507 90.3349 97.5343C93.9256 97.1759 97.2291 97.3039 100.17 96.3401C101.442 95.9231 101.964 93.2507 102.831 91.6078C102.93 91.4204 103.075 91.256 103.171 91.0681C106.276 85.0247 109.806 79.154 112.386 72.8964C117.312 60.9516 119.113 48.5215 115.995 35.7524C114.379 29.1303 112.461 22.6105 107.731 17.3071C100.757 9.48138 91.5734 7.027 81.6576 6.29668V6.29918ZM82.0561 97.6853C82.2722 96.9704 82.4484 96.2446 82.584 95.5107C83.3403 87.5718 84.3007 79.6438 84.7725 71.6877C85.6853 57.0098 84.9234 42.2765 82.5016 27.7687C81.3254 20.8192 79.6228 14.0386 75.8572 7.91075C74.8864 6.33117 73.675 6.16174 72.0978 6.18029C70.5001 6.19819 69.4585 6.77562 68.9507 8.32387C67.9568 11.3462 66.67 14.2943 65.9252 17.3736C61.4653 35.6263 60.4884 54.5476 63.0452 73.1579C64.0668 80.6261 65.8466 87.9945 67.3079 95.4007C67.5319 96.5338 67.6993 97.7282 69.3897 97.7029C73.5584 97.6454 77.7284 97.6834 82.0561 97.6834V97.6853ZM64.1402 7.32691C52.657 8.80737 44.2654 14.2598 39.7292 25.0126C35.6396 34.7069 34.9213 44.7599 36.3419 55.0752C38.2656 69.6492 42.7025 83.7851 49.4577 96.8626C49.7083 97.2863 50.0517 97.6483 50.4627 97.9221C50.8735 98.1959 51.3413 98.3742 51.8311 98.4444C54.6988 98.4083 57.5601 98.0234 60.6815 97.7477C54.2082 67.3365 53.5859 37.2917 64.1402 7.32566V7.32691ZM94.2269 123.583H58.1871C58.5282 130.891 58.8527 137.848 59.1894 145.061L92.8146 143.846C93.3031 136.836 93.7601 130.28 94.2269 123.583ZM67.2809 117.7C72.8922 117.7 78.2112 117.724 83.5289 117.662C83.8336 117.645 84.1303 117.56 84.3969 117.413C84.6634 117.265 84.8925 117.059 85.0668 116.811C86.799 112.899 88.4211 108.94 90.0807 104.979H62.5348C64.1473 109.377 65.6002 113.349 67.0665 117.317C67.1721 117.6 67.3716 117.852 67.2809 117.697V117.7Z" fill="#CCCCCC" fill-opacity="0.25"/>
</g>
<defs>
<clipPath id="clip0_73_160">
<rect width="153" height="152" fill="white"/>
</clipPath>
</defs>
</svg>
