<svg width="187" height="187" viewBox="0 0 187 187" fill="none" xmlns="http://www.w3.org/2000/svg">
<g clip-path="url(#clip0_73_142)">
<path d="M0.866781 68.9654C9.1224 59.4405 19.4419 54.2291 30.7934 50.1632C51.9897 42.5268 73.8671 37.8624 96.054 34.395C113.246 31.7016 130.428 28.9669 147.652 26.3045C159.065 24.5295 167.847 29.194 172.656 39.8127C176.798 48.635 179.758 57.9653 181.458 67.5619C182.212 72.1851 183.522 76.736 184.688 81.2869C186.897 89.9656 187.083 98.8301 187 107.674C186.928 114.588 182.459 119.025 178.094 123.38C173.711 127.806 168.51 131.338 162.78 133.782C154.359 137.301 145.835 140.645 137.188 143.575C128.261 146.609 119.159 149.169 110.068 151.707C105.538 152.977 100.863 153.771 96.2604 154.803C79.2545 158.698 61.8897 160.815 44.4461 161.119C37.9861 161.212 31.4951 161.036 25.2724 158.621C18.7402 156.093 14.2615 151.645 12.373 145C8.32779 130.779 3.30219 116.858 1.46531 102.122C0.0824972 90.946 -0.701786 79.8112 0.866781 68.9654ZM75.9929 100.027C73.0828 103.123 70.3378 105.847 67.923 108.788C63.238 114.495 58.718 120.336 54.1671 126.156C48.9041 132.884 43.6102 139.572 38.5021 146.434C37.821 147.352 38.1409 149.024 37.9448 150.861C41.4844 151.026 44.4255 151.398 47.3356 151.264C52.6295 150.995 57.9131 150.376 63.1967 150.015C75.582 148.988 87.8478 146.832 99.8413 143.575C114.124 139.902 128.168 135.32 142.213 130.717C148.083 128.705 153.815 126.313 159.375 123.556C163.317 121.677 167.125 119.335 169.323 114.567C152.615 108.376 138.199 98.6546 123.236 89.4496C121.445 90.7169 119.723 92.0775 118.076 93.5258C116.012 95.5897 114.247 98.0561 112.101 100.079C107.818 104.134 103.113 106.27 96.828 104.506C90.3267 102.638 83.588 101.616 75.9929 100.027ZM18.3274 68.4597C18.7608 69.2131 18.9156 69.9664 19.3594 70.1728C27.8626 74.2283 36.046 78.7689 45.509 80.6264C54.972 82.484 64.3731 85.4353 73.7845 87.943C78.9443 89.3052 83.9802 90.9253 89.1503 92.143C101.369 95.0222 101.41 94.9809 109.944 86.0442C117.89 77.706 126.125 69.6155 133.524 60.813C138.994 54.291 143.317 46.8197 148.085 39.7199C148.529 39.0697 148.446 38.0687 148.704 36.6859C147.225 36.6759 145.747 36.7517 144.277 36.913C124.175 40.2255 104.031 43.4865 83.9802 46.9745C65.6476 50.1809 47.6375 55.0158 30.1639 61.4218C25.7987 63.0007 21.2582 64.5177 18.3274 68.4597ZM12.0222 80.8431C10.7322 96.8074 18.6576 133.813 25.7987 142.626C33.2494 136.238 37.4804 127.353 43.5793 119.995C49.8639 112.4 56.3445 104.898 62.1544 96.4566C61.0143 95.7531 59.8122 95.1556 58.5632 94.6713C53.4035 93.3607 48.2437 92.3081 43.0839 90.8944C33.2804 88.1803 22.9299 86.9936 14.3028 80.8741C14.0138 80.6264 13.2708 80.8431 12.0222 80.8431ZM159.375 42.857C154.679 53.4964 147.848 61.5869 140.903 69.6052C138.591 72.2676 136.104 74.765 133.813 77.4996C133.048 78.5762 132.388 79.7235 131.842 80.9257C146.073 91.8334 164.638 101.678 173.946 103.381C176.949 96.921 171.696 80.2033 167.31 60.3176C164.865 49.2551 163.812 47.8001 159.375 42.857Z" fill="#CCCCCC" fill-opacity="0.25"/>
<path d="M75.9929 100.027C83.5674 101.616 90.3267 102.638 96.8383 104.526C103.123 106.343 107.829 104.155 112.111 100.099C114.258 98.0354 115.991 95.631 118.086 93.5464C119.733 92.0981 121.456 90.7375 123.246 89.4702C138.209 98.6752 152.626 108.437 169.333 114.588C167.135 119.356 163.327 121.698 159.385 123.576C153.826 126.333 148.093 128.725 142.224 130.738C128.168 135.32 114.124 139.922 99.8413 143.575C87.8472 146.825 75.5814 148.974 63.1967 149.994C57.9131 150.355 52.6295 151.026 47.3356 151.243C44.4255 151.377 41.4844 151.006 37.9448 150.84C38.1409 149.004 37.821 147.332 38.5021 146.413C43.6102 139.571 48.9042 132.864 54.1671 126.135C58.718 120.315 63.238 114.474 67.923 108.768C70.3378 105.847 73.0828 103.164 75.9929 100.027Z" fill="white"/>
<path d="M18.3274 68.4598C21.2581 64.5177 25.7884 63.0008 30.1639 61.4116C47.6375 55.0055 65.6476 50.1706 83.9802 46.9642C104.052 43.4762 124.226 40.2153 144.277 36.9027C145.747 36.7415 147.225 36.6657 148.704 36.6757C148.446 38.0585 148.529 39.0595 148.085 39.7096C143.317 46.8094 138.994 54.2808 133.524 60.8027C126.125 69.6053 117.89 77.6958 109.944 86.0339C101.41 94.9707 101.369 95.0119 89.1503 92.1328C83.9905 90.9151 78.9133 89.2949 73.7845 87.9327C64.3731 85.4664 55.0339 82.5563 45.509 80.6265C35.9841 78.6968 27.8626 74.2284 19.3387 70.1728C18.9156 69.9664 18.7608 69.2131 18.3274 68.4598Z" fill="white"/>
<path d="M12.0222 80.843C13.2709 80.843 14.0139 80.6057 14.3957 80.843C23.0228 86.9625 33.3733 88.1493 43.1768 90.8633C48.285 92.2771 53.4964 93.3297 58.6561 94.6402C59.9051 95.1245 61.1072 95.7221 62.2473 96.4255C56.3961 104.867 49.8639 112.369 43.6722 119.964C37.5733 127.322 33.3527 136.207 25.8916 142.595C18.6577 133.813 10.7323 96.8073 12.0222 80.843Z" fill="white"/>
<path d="M159.375 42.8569C163.812 47.8 164.865 49.255 167.31 60.3176C171.696 80.2033 176.949 96.9209 173.946 103.381C164.658 101.678 146.083 91.8334 131.842 80.9256C132.39 79.7341 133.05 78.5973 133.813 77.5305C136.104 74.8268 138.591 72.2985 140.903 69.6361C147.848 61.5869 154.679 53.4964 159.375 42.8569Z" fill="white"/>
</g>
<defs>
<clipPath id="clip0_73_142">
<rect width="187" height="187" fill="white"/>
</clipPath>
</defs>
</svg>
