<svg width="120" height="120" viewBox="0 0 120 120" fill="none" xmlns="http://www.w3.org/2000/svg">
<g clip-path="url(#clip0_73_202)">
<path d="M67.0645 112.75L59.4629 56.4174M59.938 59.9382L62.7886 81.0628M59.938 59.9382C57.8389 44.3824 43.5268 33.4737 27.9711 35.5728L6.84645 38.4234L9.69705 59.548C11.7962 75.1038 26.1083 86.0125 41.664 83.9134L62.7886 81.0628M59.938 59.9382L81.0626 57.0876C96.6181 54.9885 107.527 40.6764 105.428 25.1206L102.577 3.99602L81.4527 6.84662C65.897 8.94575 54.9883 23.2578 57.0874 38.8136L59.938 59.9382ZM59.938 59.9382L84.3033 27.9712M62.7886 81.0628L30.8217 56.6974" stroke="#CCCCCC" stroke-opacity="0.25" stroke-width="4"/>
</g>
<defs>
<clipPath id="clip0_73_202">
<rect width="106.58" height="106.58" fill="white" transform="translate(0 14.2529) rotate(-7.6852)"/>
</clipPath>
</defs>
</svg>
