<svg width="152" height="152" viewBox="0 0 152 152" fill="none" xmlns="http://www.w3.org/2000/svg">
<g clip-path="url(#clip0_73_185)">
<mask id="mask0_73_185" style="mask-type:luminance" maskUnits="userSpaceOnUse" x="0" y="0" width="152" height="152">
<path d="M152 0H0V152H152V0Z" fill="white"/>
</mask>
<g mask="url(#mask0_73_185)">
<path d="M107.667 76.0002C100.546 83.1207 72.8333 104.5 72.8333 104.5M107.667 76.0002C126.667 57.0002 126.667 44.3335 126.667 25.3335C107.667 25.3335 95 25.3335 76 44.3335M107.667 76.0002L110.676 91.0482C112.753 101.43 109.503 112.163 102.016 119.651L94.6035 127.063C91.6281 130.039 86.6324 129.339 84.5893 125.66L72.8333 104.5M72.8333 104.5L47.5 79.1668M76 44.3335L47.5 79.1668M76 44.3335L60.9517 41.3238C50.5694 39.2474 39.8364 42.4971 32.3497 49.9838L24.9371 57.3964C21.9618 60.3717 22.6615 65.3678 26.3397 67.4109L47.5 79.1668M98.1667 53.8366L91.8333 60.1699M19 133L40.4841 128.704C46.4048 127.519 50.6667 122.321 50.6667 116.283V114C50.6667 107.004 44.9956 101.333 38 101.333H35.7175C29.6796 101.333 24.481 105.595 23.2969 111.516L19 133Z" stroke="#CCCCCC" stroke-opacity="0.25" stroke-width="5" stroke-linecap="round" stroke-linejoin="round"/>
</g>
</g>
<defs>
<clipPath id="clip0_73_185">
<rect width="152" height="152" fill="white"/>
</clipPath>
</defs>
</svg>
