<svg width="191" height="191" viewBox="0 0 191 191" fill="none" xmlns="http://www.w3.org/2000/svg">
<path d="M61.6754 43.5735C57.9288 42.4907 54.2138 44.5398 53.131 48.2865L49.2997 61.544C48.2169 65.2907 50.266 69.0056 54.0127 70.0884L70.4405 74.836C74.1871 75.9187 77.9021 73.8696 78.9849 70.1229L82.8162 56.8654C83.899 53.1188 81.8499 49.4038 78.1032 48.321L61.6754 43.5735ZM69.1608 61.9751L62.532 60.0594L63.5315 56.6009L70.1603 58.5166L69.1608 61.9751Z" fill="#CCCCCC" fill-opacity="0.25"/>
<path d="M154.706 158.209C154.418 158.125 154.501 157.837 154.501 157.837C148.174 151.637 142.59 145.026 137.998 137.142C133.9 129.712 131.409 122.122 129.745 113.834C125.635 96.7201 116.861 81.6937 103.669 70.0741C104.252 68.0567 104.835 66.0392 105.501 63.7336C106.834 59.1223 108.166 54.511 109.499 49.8997L109.582 49.6115C109.582 49.6115 109.582 49.6115 109.666 49.3233C110.165 47.594 109.429 45.8199 108.526 44.6221C108.321 44.2506 108.321 44.2506 108.116 43.8791C99.6182 33.304 91.1202 22.7289 82.827 12.5253C81.7191 10.956 78.8371 10.1231 77.0629 10.8595C63.9838 16.1357 51.2763 21.207 38.2805 26.195L37.909 26.4C36.2181 26.8481 34.6489 27.956 33.9825 30.2616C24.654 62.5407 15.3255 94.8198 5.99696 127.099C4.66432 131.71 3.33167 136.321 1.99902 140.933C-0.166531 148.426 11.3617 151.758 13.5273 144.264C14.5267 140.806 15.6095 137.059 16.609 133.601L68.4861 148.593C67.4866 152.051 66.4038 155.798 65.4043 159.257C63.2388 166.75 74.767 170.082 76.9326 162.588C81.93 145.296 86.8441 128.292 91.8416 110.999C92.0465 111.371 92.2514 111.742 92.373 112.402C92.6996 113.433 92.6996 113.433 93.4359 115.207C93.9674 116.61 94.4156 118.301 94.8637 119.992C97.3928 128.53 99.8385 137.356 103.027 145.772C106.626 154.931 110.513 164.174 116.712 171.898C123.321 180.366 132.082 185.708 142.086 188.912C144.679 189.661 146.454 188.925 147.818 187.446C148.644 186.748 149.182 185.966 149.516 184.814C151.265 178.761 153.014 172.709 154.763 166.657C155.013 165.792 155.263 164.927 155.512 164.063C156.384 162.129 156.307 160.233 154.706 158.209ZM30.5185 85.4703L82.3956 100.463C81.2295 104.497 79.9802 108.821 78.8141 112.855L26.937 97.8632C28.1031 93.8283 29.2691 89.7934 30.5185 85.4703ZM97.0547 49.7383C93.3066 62.7076 89.4753 75.9651 85.7272 88.9344L33.8501 73.9421C36.4321 65.0077 39.0141 56.0733 41.5128 47.4271C42.5956 43.6805 43.5951 40.222 44.6779 36.4753C55.2397 32.3453 65.8016 28.2153 76.2802 24.3734C83.2605 32.6363 90.1576 41.1873 97.0547 49.7383ZM23.6054 109.391L75.4825 124.384C74.3164 128.419 73.0671 132.742 71.901 136.777L20.0239 121.784C21.19 117.749 22.356 113.715 23.6054 109.391ZM113.148 137.767C110.369 130.094 108.249 122.299 105.759 114.709C103.473 107.491 100.194 101.547 96.051 95.353C97.2171 91.3181 98.3832 87.2832 99.466 83.5365C103.123 87.0915 106.325 91.1396 108.867 95.3094C113.952 103.649 116.192 112.103 118.472 121.506C122.46 137.96 131.195 152.039 142.697 164.106C141.614 167.853 140.614 171.311 139.531 175.058C133.236 171.99 128.138 168.018 124.2 162.196C119.525 154.599 116.048 146.1 113.148 137.767Z" fill="#CCCCCC" fill-opacity="0.25"/>
</svg>
