<svg width="104" height="111" viewBox="0 0 104 111" fill="none" xmlns="http://www.w3.org/2000/svg">
<path d="M32.0587 23.0891C35.2886 10.2656 36.9034 3.85381 41.5528 2.60801C46.2022 1.36221 50.8065 6.10749 60.0152 15.5981L62.3977 18.0534C65.0148 20.7502 66.3229 22.0988 67.9815 22.7755C69.6395 23.4523 71.4591 23.3808 75.0994 23.2377L78.4136 23.1074C91.2228 22.604 97.6278 22.3522 100.302 26.5872C102.977 30.822 100.15 36.7394 94.4963 48.5734L93.0338 51.6351C91.4272 54.9979 90.6236 56.6794 90.5508 58.5129C90.4784 60.3464 91.1442 62.1241 92.4759 65.6801L93.6885 68.9169C98.3752 81.4293 100.719 87.6854 97.7228 91.5484C94.7262 95.4116 88.3746 94.3232 75.6716 92.147L72.3851 91.5835C68.7755 90.9651 66.9707 90.6556 65.2673 91.112C63.564 91.5684 62.1557 92.7388 59.3389 95.0792L56.7745 97.2104C46.8614 105.447 41.9049 109.565 37.3786 107.718C32.8522 105.87 31.7536 99.2805 29.5564 86.1011L28.9879 82.6916C28.3635 78.9461 28.0514 77.0737 27.0715 75.5222C26.0918 73.9707 24.5554 72.9161 21.4826 70.8072L18.685 68.887C7.87173 61.4654 2.46493 57.7541 2.66376 52.7494C2.86254 47.7444 8.53511 44.7601 19.8802 38.7913L22.8154 37.2472C26.0393 35.551 27.6512 34.703 28.7488 33.2878C29.8464 31.8727 30.3053 30.0507 31.2231 26.4066L32.0587 23.0891Z" stroke="#CCCCCC" stroke-opacity="0.25" stroke-width="3.75"/>
</svg>
