<svg width="1727" height="254" viewBox="0 0 1727 254" fill="none" xmlns="http://www.w3.org/2000/svg">
<path d="M0 41.1693L57.6333 61.8693C115.267 82.4693 230.533 123.869 345.8 140.869C461.067 157.869 576.333 150.469 691.6 134.669C806.867 118.869 922.133 94.4693 1037.4 79.9693C1152.67 65.4693 1267.93 60.8693 1383.2 70.4693C1498.47 80.1693 1613.73 104.169 1671.37 116.169L1729 128.169V253.169H1671.37C1613.73 253.169 1498.47 253.169 1383.2 253.169C1267.93 253.169 1152.67 253.169 1037.4 253.169C922.133 253.169 806.867 253.169 691.6 253.169C576.333 253.169 461.067 253.169 345.8 253.169C230.533 253.169 115.267 253.169 57.6333 253.169H0V41.1693Z" fill="#9BB8CD"/>
<path fill-rule="evenodd" clip-rule="evenodd" d="M346.386 73.6867L334.787 67.8871C335.146 66.2766 335.416 64.6327 335.592 62.9608L346.386 57.5636C349.988 55.7626 351.448 51.3827 349.647 47.7808C347.846 44.1789 343.466 42.7189 339.864 44.5198L334.416 47.2441C329.507 28.4515 312.415 14.5834 292.083 14.5834C267.921 14.5834 248.333 34.1709 248.333 58.3334C248.333 62.0855 248.806 65.7273 249.694 69.2026L213.942 58.6325L204.583 55.8656V65.625V103.265C204.583 135.362 232.564 160.417 265.842 160.417H286.734C310.393 160.417 330.231 141.692 328.431 118.404C327.709 109.069 323.518 100.641 317.056 94.2609C321.94 90.8593 326.099 86.4872 329.251 81.4239L339.864 86.73C343.466 88.5311 347.846 87.0713 349.647 83.4692C351.448 79.8671 349.988 75.4878 346.386 73.6867ZM292.083 29.1667C306.715 29.1667 318.83 39.9405 320.929 53.9877L310.698 59.1032C308.227 60.3384 306.667 62.8632 306.667 65.625C306.667 68.3869 308.227 70.9117 310.698 72.1469L316.121 74.8585C310.861 82.4943 302.057 87.5 292.083 87.5C275.975 87.5 262.917 74.4414 262.917 58.3334C262.917 42.2251 275.975 29.1667 292.083 29.1667ZM259.234 87.2302C267.252 96.3375 278.996 102.083 292.083 102.083C295.527 102.083 298.877 101.685 302.091 100.933C308.984 105.19 313.314 112.068 313.891 119.528C314.944 133.156 303.135 145.833 286.734 145.833H265.842C239.51 145.833 219.167 126.242 219.167 103.265V75.3842L259.234 87.2302ZM284.792 76.5625C278.751 76.5625 273.854 71.6657 273.854 65.625C273.854 59.5844 278.751 54.6875 284.792 54.6875C290.833 54.6875 295.729 59.5844 295.729 65.625C295.729 71.6657 290.833 76.5625 284.792 76.5625Z" fill="#EEC759"/>
</svg>
