<svg id="visual" viewBox="0 0 1920 300" width="1920" height="300" xmlns="http://www.w3.org/2000/svg" xmlns:xlink="http://www.w3.org/1999/xlink" version="1.1"><rect x="0" y="0" width="1920" height="300" fill="#ffffff"></rect><path d="M0 113L64 131.5C128 150 256 187 384 192.7C512 198.3 640 172.7 768 148.2C896 123.7 1024 100.3 1152 100.5C1280 100.7 1408 124.3 1536 145C1664 165.7 1792 183.3 1856 192.2L1920 201L1920 0L1856 0C1792 0 1664 0 1536 0C1408 0 1280 0 1152 0C1024 0 896 0 768 0C640 0 512 0 384 0C256 0 128 0 64 0L0 0Z" fill="#9BB8CD" stroke-linecap="round" stroke-linejoin="miter"></path></svg>