<svg id="visual" viewBox="0 0 1920 300" width="1920" height="300" xmlns="http://www.w3.org/2000/svg" xmlns:xlink="http://www.w3.org/1999/xlink" version="1.1"><rect x="0" y="0" width="1920" height="300" fill="#ffffff"></rect><path d="M0 89L64 109.7C128 130.3 256 171.7 384 188.7C512 205.7 640 198.3 768 182.5C896 166.7 1024 142.3 1152 127.8C1280 113.3 1408 108.7 1536 118.3C1664 128 1792 152 1856 164L1920 176L1920 301L1856 301C1792 301 1664 301 1536 301C1408 301 1280 301 1152 301C1024 301 896 301 768 301C640 301 512 301 384 301C256 301 128 301 64 301L0 301Z" fill="#9BB8CD" stroke-linecap="round" stroke-linejoin="miter"></path></svg>