<svg width="147" height="147" viewBox="0 0 147 147" fill="none" xmlns="http://www.w3.org/2000/svg">
<path fill-rule="evenodd" clip-rule="evenodd" d="M142.386 59.6867L130.787 53.8871C131.146 52.2766 131.416 50.6327 131.592 48.9608L142.386 43.5636C145.988 41.7626 147.448 37.3827 145.647 33.7808C143.846 30.1789 139.466 28.7189 135.864 30.5198L130.416 33.2441C125.507 14.4515 108.415 0.583374 88.0835 0.583374C63.921 0.583374 44.3334 20.1709 44.3334 44.3334C44.3334 48.0855 44.8058 51.7273 45.694 55.2026L9.94221 44.6325L0.583359 41.8656V51.625V89.2646C0.583359 121.362 28.5644 146.417 61.8421 146.417H82.7342C106.393 146.417 126.231 127.692 124.431 104.404C123.709 95.0688 119.518 86.6411 113.056 80.2609C117.94 76.8593 122.099 72.4872 125.251 67.4239L135.864 72.73C139.466 74.5311 143.846 73.0713 145.647 69.4692C147.448 65.8671 145.988 61.4878 142.386 59.6867ZM88.0835 15.1667C102.715 15.1667 114.83 25.9405 116.929 39.9877L106.698 45.1032C104.227 46.3384 102.667 48.8632 102.667 51.625C102.667 54.3869 104.227 56.9117 106.698 58.1469L112.121 60.8585C106.861 68.4943 98.0567 73.5 88.0835 73.5C71.9753 73.5 58.9167 60.4414 58.9167 44.3334C58.9167 28.2251 71.9753 15.1667 88.0835 15.1667ZM55.2344 73.2302C63.2516 82.3375 74.9963 88.0834 88.0835 88.0834C91.5269 88.0834 94.8774 87.6852 98.0914 86.9335C104.984 91.1896 109.314 98.0679 109.891 105.528C110.944 119.156 99.1353 131.833 82.7342 131.833H61.8421C35.5097 131.833 15.1667 112.242 15.1667 89.2646V61.3842L55.2344 73.2302ZM80.7917 62.5625C74.7513 62.5625 69.8542 57.6657 69.8542 51.625C69.8542 45.5844 74.7513 40.6875 80.7917 40.6875C86.8328 40.6875 91.7294 45.5844 91.7294 51.625C91.7294 57.6657 86.8328 62.5625 80.7917 62.5625Z" fill="#EEC759"/>
</svg>
