<svg width="1725" height="659" viewBox="0 0 1725 659" fill="none" xmlns="http://www.w3.org/2000/svg">
<path d="M981.511 229.203C1027.12 285.64 1077.14 326.748 1097.74 388.295C1118.12 450.073 1108.86 532.058 1063.48 578.043C1017.86 624.261 936.129 634.248 863.657 624.726C791.417 614.971 728.67 585.94 684.214 539.722C639.99 493.736 613.826 430.797 616.142 369.947C618.226 309.33 648.557 250.802 693.013 194.133C737.468 137.697 795.816 83.1177 845.366 91.9432C895.147 100.769 936.129 172.766 981.511 229.203Z" fill="#B1C381"/>
<path d="M923.511 253.203C969.124 309.64 1019.14 350.748 1039.74 412.295C1060.12 474.073 1050.86 556.058 1005.48 602.043C959.862 648.261 878.129 658.248 805.657 648.726C733.417 638.971 670.67 609.94 626.214 563.722C581.99 517.736 555.826 454.797 558.142 393.947C560.226 333.33 590.557 274.802 635.013 218.133C679.468 161.697 737.816 107.118 787.366 115.943C837.147 124.769 878.129 196.766 923.511 253.203Z" fill="#B1C381" fill-opacity="0.25"/>
<path d="M771.602 515.203C771.375 515.203 771.18 515.16 771.016 515.074C770.859 514.988 770.723 514.879 770.605 514.746C770.488 514.613 770.387 514.465 770.301 514.301C770.223 514.137 770.156 513.977 770.102 513.82L767.875 507.398H767.57V517.172C767.57 517.422 767.555 517.656 767.523 517.875C767.492 518.094 767.422 518.289 767.312 518.461C767.211 518.625 767.055 518.758 766.844 518.859C766.641 518.953 766.359 519 766 519C765.594 519 765.273 518.953 765.039 518.859C764.805 518.758 764.629 518.625 764.512 518.461C764.395 518.289 764.32 518.094 764.289 517.875C764.258 517.656 764.242 517.422 764.242 517.172V505.266C764.242 504.93 764.25 504.602 764.266 504.281C764.289 503.961 764.355 503.676 764.465 503.426C764.574 503.176 764.746 502.977 764.98 502.828C765.223 502.672 765.562 502.594 766 502.594H767.594C767.859 502.594 768.082 502.605 768.262 502.629C768.449 502.645 768.621 502.711 768.777 502.828C768.934 502.938 769.086 503.117 769.234 503.367C769.391 503.617 769.559 503.973 769.738 504.434C769.926 504.887 770.141 505.469 770.383 506.18C770.625 506.883 770.922 507.75 771.273 508.781L771.578 509.719H771.859L772.234 508.547C772.555 507.562 772.828 506.73 773.055 506.051C773.281 505.371 773.48 504.812 773.652 504.375C773.824 503.93 773.977 503.59 774.109 503.355C774.25 503.113 774.395 502.938 774.543 502.828C774.699 502.711 774.867 502.645 775.047 502.629C775.227 502.605 775.445 502.594 775.703 502.594H777.414C777.852 502.594 778.188 502.672 778.422 502.828C778.664 502.977 778.84 503.176 778.949 503.426C779.059 503.676 779.121 503.961 779.137 504.281C779.16 504.602 779.172 504.93 779.172 505.266V517.172C779.172 517.422 779.156 517.656 779.125 517.875C779.094 518.094 779.02 518.289 778.902 518.461C778.785 518.625 778.609 518.758 778.375 518.859C778.141 518.953 777.82 519 777.414 519C777.055 519 776.77 518.953 776.559 518.859C776.355 518.758 776.199 518.625 776.09 518.461C775.988 518.289 775.922 518.094 775.891 517.875C775.859 517.656 775.844 517.422 775.844 517.172V507.398H775.516L773.312 513.82C773.25 513.977 773.18 514.137 773.102 514.301C773.023 514.465 772.926 514.613 772.809 514.746C772.691 514.879 772.555 514.988 772.398 515.074C772.242 515.16 772.055 515.203 771.836 515.203H771.602ZM785.711 511.922H789.438L787.703 505.641H787.445L785.711 511.922ZM793.07 513.07C793.086 513.602 793.105 514.145 793.129 514.699C793.152 515.254 793.164 515.789 793.164 516.305V516.656C793.164 516.953 793.152 517.242 793.129 517.523C793.113 517.797 793.055 518.047 792.953 518.273C792.852 518.492 792.691 518.668 792.473 518.801C792.254 518.934 791.945 519 791.547 519C791.141 519 790.828 518.934 790.609 518.801C790.391 518.668 790.227 518.492 790.117 518.273C790.016 518.055 789.953 517.805 789.93 517.523C789.914 517.242 789.906 516.953 789.906 516.656V515.016H785.219V516.656C785.219 516.953 785.207 517.242 785.184 517.523C785.168 517.805 785.105 518.055 784.996 518.273C784.895 518.492 784.734 518.668 784.516 518.801C784.297 518.934 783.984 519 783.578 519C783.172 519 782.859 518.934 782.641 518.801C782.422 518.668 782.262 518.492 782.16 518.273C782.059 518.047 782 517.797 781.984 517.523C781.969 517.242 781.961 516.953 781.961 516.656V516.305C781.961 516.062 781.961 515.805 781.961 515.531C781.969 515.258 781.977 514.98 781.984 514.699C781.992 514.418 782 514.141 782.008 513.867C782.016 513.586 782.023 513.32 782.031 513.07C782.422 511.711 782.832 510.336 783.262 508.945C783.691 507.547 784.102 506.164 784.492 504.797C784.57 504.508 784.664 504.23 784.773 503.965C784.883 503.691 785.027 503.457 785.207 503.262C785.387 503.059 785.617 502.898 785.898 502.781C786.18 502.656 786.539 502.594 786.977 502.594H788.148C788.578 502.594 788.934 502.656 789.215 502.781C789.504 502.898 789.738 503.059 789.918 503.262C790.098 503.457 790.238 503.691 790.34 503.965C790.449 504.23 790.547 504.508 790.633 504.797L793.07 513.07ZM795.695 505.266C795.695 504.93 795.703 504.602 795.719 504.281C795.742 503.961 795.809 503.676 795.918 503.426C796.027 503.176 796.199 502.977 796.434 502.828C796.676 502.672 797.016 502.594 797.453 502.594H801.32C802.281 502.641 803.141 502.844 803.898 503.203C804.219 503.359 804.531 503.555 804.836 503.789C805.148 504.016 805.426 504.301 805.668 504.645C805.91 504.98 806.105 505.379 806.254 505.84C806.402 506.301 806.477 506.836 806.477 507.445C806.477 507.57 806.465 507.738 806.441 507.949C806.418 508.152 806.367 508.379 806.289 508.629C806.211 508.871 806.105 509.125 805.973 509.391C805.84 509.656 805.664 509.91 805.445 510.152C805.227 510.395 804.957 510.617 804.637 510.82C804.324 511.023 803.953 511.188 803.523 511.312C803.797 511.422 804.074 511.566 804.355 511.746C804.637 511.918 804.891 512.141 805.117 512.414C805.344 512.688 805.527 513.016 805.668 513.398C805.816 513.781 805.891 514.227 805.891 514.734V516.398C805.891 516.492 805.914 516.57 805.961 516.633C806.008 516.695 806.055 516.75 806.102 516.797C806.289 516.984 806.398 517.148 806.43 517.289C806.461 517.422 806.477 517.531 806.477 517.617C806.477 517.891 806.422 518.121 806.312 518.309C806.203 518.496 806.059 518.648 805.879 518.766C805.707 518.883 805.508 518.965 805.281 519.012C805.062 519.066 804.836 519.094 804.602 519.094C804.344 519.094 804.082 519.055 803.816 518.977C803.551 518.891 803.309 518.77 803.09 518.613C802.871 518.457 802.691 518.262 802.551 518.027C802.418 517.793 802.352 517.523 802.352 517.219V514.734C802.352 514.391 802.328 514.074 802.281 513.785C802.234 513.496 802.145 513.246 802.012 513.035C801.879 512.824 801.695 512.66 801.461 512.543C801.227 512.426 800.922 512.367 800.547 512.367H799.234V516.281C799.234 516.625 799.223 516.961 799.199 517.289C799.184 517.617 799.121 517.91 799.012 518.168C798.902 518.418 798.727 518.621 798.484 518.777C798.242 518.926 797.898 519 797.453 519C797.016 519 796.676 518.926 796.434 518.777C796.199 518.621 796.027 518.418 795.918 518.168C795.809 517.91 795.742 517.617 795.719 517.289C795.703 516.961 795.695 516.625 795.695 516.281V505.266ZM800.828 509.742C801.219 509.727 801.57 509.633 801.883 509.461C802.016 509.391 802.145 509.301 802.27 509.191C802.395 509.082 802.508 508.945 802.609 508.781C802.711 508.617 802.789 508.426 802.844 508.207C802.906 507.988 802.938 507.734 802.938 507.445C802.938 507.188 802.906 506.961 802.844 506.766C802.789 506.562 802.715 506.387 802.621 506.238C802.527 506.09 802.418 505.965 802.293 505.863C802.176 505.762 802.055 505.68 801.93 505.617C801.633 505.469 801.297 505.383 800.922 505.359H799.234V509.742H800.828ZM816.156 502.594C816.469 502.594 816.781 502.605 817.094 502.629C817.414 502.652 817.703 502.719 817.961 502.828C818.219 502.938 818.426 503.105 818.582 503.332C818.746 503.551 818.828 503.859 818.828 504.258C818.828 504.648 818.746 504.957 818.582 505.184C818.426 505.402 818.219 505.566 817.961 505.676C817.703 505.785 817.414 505.855 817.094 505.887C816.781 505.91 816.469 505.922 816.156 505.922H814.961V516.328C814.961 516.664 814.949 516.992 814.926 517.312C814.91 517.633 814.848 517.918 814.738 518.168C814.629 518.418 814.453 518.621 814.211 518.777C813.969 518.926 813.625 519 813.18 519C812.734 519 812.391 518.926 812.148 518.777C811.906 518.621 811.73 518.418 811.621 518.168C811.512 517.918 811.445 517.633 811.422 517.312C811.406 516.992 811.398 516.664 811.398 516.328V505.922H810.203C809.891 505.922 809.574 505.91 809.254 505.887C808.941 505.855 808.656 505.785 808.398 505.676C808.141 505.566 807.93 505.402 807.766 505.184C807.609 504.957 807.531 504.648 807.531 504.258C807.531 503.859 807.609 503.551 807.766 503.332C807.93 503.105 808.141 502.938 808.398 502.828C808.656 502.719 808.941 502.652 809.254 502.629C809.574 502.605 809.891 502.594 810.203 502.594H816.156ZM820.891 505.289C820.891 504.953 820.906 504.625 820.938 504.305C820.977 503.984 821.059 503.699 821.184 503.449C821.316 503.191 821.512 502.984 821.77 502.828C822.027 502.672 822.383 502.594 822.836 502.594C823.289 502.594 823.645 502.672 823.902 502.828C824.16 502.984 824.352 503.191 824.477 503.449C824.609 503.699 824.691 503.984 824.723 504.305C824.762 504.625 824.781 504.953 824.781 505.289V516.305C824.781 516.648 824.766 516.98 824.734 517.301C824.703 517.621 824.621 517.91 824.488 518.168C824.363 518.418 824.168 518.621 823.902 518.777C823.645 518.926 823.289 519 822.836 519C822.383 519 822.027 518.926 821.77 518.777C821.512 518.621 821.316 518.418 821.184 518.168C821.059 517.91 820.977 517.621 820.938 517.301C820.906 516.98 820.891 516.648 820.891 516.305V505.289ZM837.461 514.148H837.742V504.422C837.742 504.172 837.758 503.938 837.789 503.719C837.82 503.492 837.887 503.297 837.988 503.133C838.098 502.969 838.254 502.84 838.457 502.746C838.668 502.645 838.953 502.594 839.312 502.594C839.711 502.594 840.023 502.645 840.25 502.746C840.484 502.84 840.66 502.969 840.777 503.133C840.895 503.297 840.969 503.492 841 503.719C841.031 503.938 841.047 504.172 841.047 504.422V516.305C841.047 516.648 841.035 516.98 841.012 517.301C840.996 517.621 840.934 517.91 840.824 518.168C840.723 518.418 840.551 518.621 840.309 518.777C840.074 518.926 839.742 519 839.312 519H837.766C837.398 519 837.09 518.93 836.84 518.789C836.598 518.641 836.395 518.465 836.23 518.262C836.066 518.051 835.934 517.832 835.832 517.605C835.738 517.379 835.664 517.188 835.609 517.031L832.07 507.445H831.789V517.172C831.789 517.422 831.773 517.66 831.742 517.887C831.711 518.105 831.641 518.297 831.531 518.461C831.43 518.625 831.273 518.758 831.062 518.859C830.859 518.953 830.578 519 830.219 519C829.812 519 829.492 518.953 829.258 518.859C829.023 518.758 828.848 518.625 828.73 518.461C828.613 518.297 828.539 518.105 828.508 517.887C828.477 517.66 828.461 517.422 828.461 517.172V505.289C828.461 504.953 828.469 504.625 828.484 504.305C828.508 503.977 828.574 503.688 828.684 503.438C828.793 503.18 828.965 502.977 829.199 502.828C829.441 502.672 829.781 502.594 830.219 502.594H831.766C832.156 502.594 832.473 502.672 832.715 502.828C832.965 502.977 833.168 503.141 833.324 503.32C833.496 503.531 833.633 503.773 833.734 504.047L837.461 514.148ZM854.102 505.289C854.102 504.953 854.117 504.625 854.148 504.305C854.18 503.984 854.254 503.699 854.371 503.449C854.496 503.191 854.676 502.984 854.91 502.828C855.145 502.672 855.469 502.594 855.883 502.594C856.328 502.594 856.676 502.672 856.926 502.828C857.176 502.984 857.359 503.191 857.477 503.449C857.594 503.699 857.664 503.984 857.688 504.305C857.719 504.625 857.734 504.953 857.734 505.289V515.555H860.031C860.352 515.555 860.668 515.57 860.98 515.602C861.293 515.633 861.57 515.707 861.812 515.824C862.062 515.941 862.262 516.113 862.41 516.34C862.559 516.566 862.633 516.875 862.633 517.266C862.633 517.664 862.559 517.98 862.41 518.215C862.262 518.441 862.062 518.613 861.812 518.73C861.57 518.848 861.293 518.922 860.98 518.953C860.668 518.984 860.352 519 860.031 519H856.703C856.289 519 855.922 518.984 855.602 518.953C855.281 518.922 855.008 518.848 854.781 518.73C854.562 518.613 854.395 518.441 854.277 518.215C854.16 517.98 854.102 517.664 854.102 517.266V505.289ZM865.023 505.266C865.023 504.93 865.039 504.602 865.07 504.281C865.109 503.961 865.191 503.676 865.316 503.426C865.449 503.176 865.645 502.977 865.902 502.828C866.16 502.672 866.516 502.594 866.969 502.594C867.422 502.594 867.777 502.672 868.035 502.828C868.301 502.977 868.496 503.176 868.621 503.426C868.754 503.676 868.836 503.961 868.867 504.281C868.898 504.602 868.914 504.93 868.914 505.266V514.5C868.938 514.844 869.008 515.148 869.125 515.414C869.172 515.531 869.234 515.645 869.312 515.754C869.391 515.863 869.48 515.961 869.582 516.047C869.691 516.133 869.816 516.203 869.957 516.258C870.105 516.305 870.273 516.328 870.461 516.328C870.648 516.328 870.816 516.305 870.965 516.258C871.113 516.203 871.238 516.133 871.34 516.047C871.449 515.961 871.543 515.863 871.621 515.754C871.699 515.645 871.762 515.531 871.809 515.414C871.926 515.148 871.992 514.844 872.008 514.5V505.266C872.008 504.93 872.023 504.602 872.055 504.281C872.086 503.961 872.164 503.676 872.289 503.426C872.422 503.176 872.617 502.977 872.875 502.828C873.133 502.672 873.492 502.594 873.953 502.594C874.406 502.594 874.762 502.672 875.02 502.828C875.277 502.977 875.469 503.176 875.594 503.426C875.727 503.676 875.809 503.961 875.84 504.281C875.879 504.602 875.898 504.93 875.898 505.266V514.195C875.898 515.008 875.766 515.719 875.5 516.328C875.242 516.938 874.871 517.449 874.387 517.863C873.91 518.27 873.336 518.578 872.664 518.789C872 518.992 871.266 519.094 870.461 519.094C869.648 519.094 868.91 518.988 868.246 518.777C867.582 518.559 867.008 518.242 866.523 517.828C866.047 517.414 865.676 516.902 865.41 516.293C865.152 515.684 865.023 514.984 865.023 514.195V505.266ZM886.258 502.594C886.57 502.594 886.883 502.605 887.195 502.629C887.516 502.652 887.805 502.719 888.062 502.828C888.32 502.938 888.527 503.105 888.684 503.332C888.848 503.551 888.93 503.859 888.93 504.258C888.93 504.648 888.848 504.957 888.684 505.184C888.527 505.402 888.32 505.566 888.062 505.676C887.805 505.785 887.516 505.855 887.195 505.887C886.883 505.91 886.57 505.922 886.258 505.922H885.062V516.328C885.062 516.664 885.051 516.992 885.027 517.312C885.012 517.633 884.949 517.918 884.84 518.168C884.73 518.418 884.555 518.621 884.312 518.777C884.07 518.926 883.727 519 883.281 519C882.836 519 882.492 518.926 882.25 518.777C882.008 518.621 881.832 518.418 881.723 518.168C881.613 517.918 881.547 517.633 881.523 517.312C881.508 516.992 881.5 516.664 881.5 516.328V505.922H880.305C879.992 505.922 879.676 505.91 879.355 505.887C879.043 505.855 878.758 505.785 878.5 505.676C878.242 505.566 878.031 505.402 877.867 505.184C877.711 504.957 877.633 504.648 877.633 504.258C877.633 503.859 877.711 503.551 877.867 503.332C878.031 503.105 878.242 502.938 878.5 502.828C878.758 502.719 879.043 502.652 879.355 502.629C879.676 502.605 879.992 502.594 880.305 502.594H886.258ZM890.734 505.289C890.734 504.953 890.75 504.625 890.781 504.305C890.812 503.984 890.887 503.699 891.004 503.449C891.129 503.191 891.309 502.984 891.543 502.828C891.777 502.672 892.102 502.594 892.516 502.594C892.922 502.594 893.242 502.672 893.477 502.828C893.719 502.984 893.898 503.191 894.016 503.449C894.141 503.699 894.219 503.984 894.25 504.305C894.281 504.625 894.297 504.953 894.297 505.289V508.969H897.508V505.289C897.508 504.953 897.523 504.625 897.555 504.305C897.586 503.984 897.66 503.699 897.777 503.449C897.902 503.191 898.082 502.984 898.316 502.828C898.551 502.672 898.875 502.594 899.289 502.594C899.695 502.594 900.016 502.672 900.25 502.828C900.492 502.984 900.672 503.191 900.789 503.449C900.914 503.699 900.992 503.984 901.023 504.305C901.055 504.625 901.07 504.953 901.07 505.289V516.305C901.07 516.648 901.055 516.98 901.023 517.301C900.992 517.621 900.914 517.91 900.789 518.168C900.672 518.418 900.492 518.621 900.25 518.777C900.016 518.926 899.695 519 899.289 519C898.875 519 898.551 518.926 898.316 518.777C898.082 518.621 897.902 518.418 897.777 518.168C897.66 517.91 897.586 517.621 897.555 517.301C897.523 516.98 897.508 516.648 897.508 516.305V512.414H894.297V516.305C894.297 516.648 894.281 516.98 894.25 517.301C894.219 517.621 894.141 517.91 894.016 518.168C893.898 518.418 893.719 518.621 893.477 518.777C893.242 518.926 892.922 519 892.516 519C892.102 519 891.777 518.926 891.543 518.777C891.309 518.621 891.129 518.418 891.004 518.168C890.887 517.91 890.812 517.621 890.781 517.301C890.75 516.98 890.734 516.648 890.734 516.305V505.289ZM910.68 502.594C910.992 502.594 911.309 502.605 911.629 502.629C911.949 502.652 912.238 502.719 912.496 502.828C912.754 502.938 912.965 503.105 913.129 503.332C913.293 503.551 913.375 503.859 913.375 504.258C913.375 504.656 913.293 504.969 913.129 505.195C912.965 505.414 912.754 505.578 912.496 505.688C912.238 505.797 911.949 505.863 911.629 505.887C911.309 505.91 910.992 505.922 910.68 505.922H907.891V509.109H909.367C909.68 509.109 909.992 509.121 910.305 509.145C910.625 509.16 910.906 509.223 911.148 509.332C911.398 509.434 911.602 509.594 911.758 509.812C911.914 510.023 911.992 510.32 911.992 510.703C911.992 511.094 911.914 511.395 911.758 511.605C911.602 511.816 911.398 511.977 911.148 512.086C910.906 512.188 910.625 512.25 910.305 512.273C909.992 512.289 909.68 512.297 909.367 512.297H907.891V515.672H910.68C910.992 515.672 911.309 515.684 911.629 515.707C911.949 515.73 912.238 515.797 912.496 515.906C912.754 516.008 912.965 516.172 913.129 516.398C913.293 516.617 913.375 516.922 913.375 517.312C913.375 517.719 913.289 518.035 913.117 518.262C912.953 518.488 912.742 518.656 912.484 518.766C912.227 518.875 911.938 518.941 911.617 518.965C911.297 518.988 910.984 519 910.68 519H906.086C905.648 519 905.309 518.922 905.066 518.766C904.832 518.609 904.66 518.406 904.551 518.156C904.441 517.898 904.375 517.609 904.352 517.289C904.336 516.969 904.328 516.641 904.328 516.305V505.289C904.328 504.953 904.336 504.625 904.352 504.305C904.375 503.984 904.441 503.699 904.551 503.449C904.66 503.191 904.832 502.984 905.066 502.828C905.309 502.672 905.648 502.594 906.086 502.594H910.68ZM915.906 505.266C915.906 504.93 915.914 504.602 915.93 504.281C915.953 503.961 916.02 503.676 916.129 503.426C916.238 503.176 916.41 502.977 916.645 502.828C916.887 502.672 917.227 502.594 917.664 502.594H921.531C922.492 502.641 923.352 502.844 924.109 503.203C924.43 503.359 924.742 503.555 925.047 503.789C925.359 504.016 925.637 504.301 925.879 504.645C926.121 504.98 926.316 505.379 926.465 505.84C926.613 506.301 926.688 506.836 926.688 507.445C926.688 507.57 926.676 507.738 926.652 507.949C926.629 508.152 926.578 508.379 926.5 508.629C926.422 508.871 926.316 509.125 926.184 509.391C926.051 509.656 925.875 509.91 925.656 510.152C925.438 510.395 925.168 510.617 924.848 510.82C924.535 511.023 924.164 511.188 923.734 511.312C924.008 511.422 924.285 511.566 924.566 511.746C924.848 511.918 925.102 512.141 925.328 512.414C925.555 512.688 925.738 513.016 925.879 513.398C926.027 513.781 926.102 514.227 926.102 514.734V516.398C926.102 516.492 926.125 516.57 926.172 516.633C926.219 516.695 926.266 516.75 926.312 516.797C926.5 516.984 926.609 517.148 926.641 517.289C926.672 517.422 926.688 517.531 926.688 517.617C926.688 517.891 926.633 518.121 926.523 518.309C926.414 518.496 926.27 518.648 926.09 518.766C925.918 518.883 925.719 518.965 925.492 519.012C925.273 519.066 925.047 519.094 924.812 519.094C924.555 519.094 924.293 519.055 924.027 518.977C923.762 518.891 923.52 518.77 923.301 518.613C923.082 518.457 922.902 518.262 922.762 518.027C922.629 517.793 922.562 517.523 922.562 517.219V514.734C922.562 514.391 922.539 514.074 922.492 513.785C922.445 513.496 922.355 513.246 922.223 513.035C922.09 512.824 921.906 512.66 921.672 512.543C921.438 512.426 921.133 512.367 920.758 512.367H919.445V516.281C919.445 516.625 919.434 516.961 919.41 517.289C919.395 517.617 919.332 517.91 919.223 518.168C919.113 518.418 918.938 518.621 918.695 518.777C918.453 518.926 918.109 519 917.664 519C917.227 519 916.887 518.926 916.645 518.777C916.41 518.621 916.238 518.418 916.129 518.168C916.02 517.91 915.953 517.617 915.93 517.289C915.914 516.961 915.906 516.625 915.906 516.281V505.266ZM921.039 509.742C921.43 509.727 921.781 509.633 922.094 509.461C922.227 509.391 922.355 509.301 922.48 509.191C922.605 509.082 922.719 508.945 922.82 508.781C922.922 508.617 923 508.426 923.055 508.207C923.117 507.988 923.148 507.734 923.148 507.445C923.148 507.188 923.117 506.961 923.055 506.766C923 506.562 922.926 506.387 922.832 506.238C922.738 506.09 922.629 505.965 922.504 505.863C922.387 505.762 922.266 505.68 922.141 505.617C921.844 505.469 921.508 505.383 921.133 505.359H919.445V509.742H921.039ZM938.617 505.266C938.617 504.93 938.633 504.602 938.664 504.281C938.695 503.961 938.77 503.676 938.887 503.426C939.004 503.176 939.18 502.977 939.414 502.828C939.648 502.672 939.969 502.594 940.375 502.594C940.789 502.594 941.117 502.672 941.359 502.828C941.602 502.977 941.781 503.176 941.898 503.426C942.023 503.676 942.102 503.961 942.133 504.281C942.164 504.602 942.18 504.93 942.18 505.266V509.484H943.516C943.773 508.812 944.031 508.152 944.289 507.504C944.398 507.23 944.512 506.949 944.629 506.66C944.746 506.363 944.859 506.074 944.969 505.793C945.086 505.512 945.195 505.242 945.297 504.984C945.406 504.719 945.508 504.484 945.602 504.281C945.695 504.062 945.793 503.852 945.895 503.648C946.004 503.445 946.129 503.266 946.27 503.109C946.41 502.953 946.566 502.828 946.738 502.734C946.918 502.641 947.125 502.594 947.359 502.594C947.586 502.594 947.809 502.629 948.027 502.699C948.246 502.77 948.441 502.875 948.613 503.016C948.785 503.156 948.922 503.328 949.023 503.531C949.133 503.734 949.188 503.969 949.188 504.234C949.188 504.438 949.152 504.68 949.082 504.961C949.02 505.234 948.93 505.508 948.812 505.781L946.703 510.773C947.109 510.922 947.469 511.164 947.781 511.5C947.914 511.641 948.043 511.812 948.168 512.016C948.301 512.211 948.418 512.441 948.52 512.707C948.621 512.973 948.703 513.277 948.766 513.621C948.828 513.957 948.859 514.336 948.859 514.758V516.422C948.859 516.508 948.891 516.578 948.953 516.633C949.016 516.688 949.078 516.75 949.141 516.82C949.297 517 949.387 517.156 949.41 517.289C949.434 517.422 949.445 517.531 949.445 517.617C949.445 517.898 949.391 518.133 949.281 518.32C949.18 518.508 949.039 518.66 948.859 518.777C948.688 518.895 948.484 518.977 948.25 519.023C948.023 519.07 947.789 519.094 947.547 519.094C947.289 519.094 947.027 519.055 946.762 518.977C946.496 518.898 946.254 518.781 946.035 518.625C945.816 518.461 945.637 518.258 945.496 518.016C945.363 517.773 945.297 517.492 945.297 517.172V514.758C945.297 514.422 945.273 514.109 945.227 513.82C945.18 513.523 945.09 513.27 944.957 513.059C944.824 512.84 944.641 512.672 944.406 512.555C944.172 512.43 943.867 512.367 943.492 512.367H942.18V516.305C942.18 516.648 942.164 516.98 942.133 517.301C942.102 517.621 942.023 517.91 941.898 518.168C941.781 518.418 941.602 518.621 941.359 518.777C941.117 518.926 940.789 519 940.375 519C939.969 519 939.648 518.926 939.414 518.777C939.18 518.621 939.004 518.418 938.887 518.168C938.77 517.91 938.695 517.621 938.664 517.301C938.633 516.98 938.617 516.648 938.617 516.305V505.266ZM952.328 505.289C952.328 504.953 952.344 504.625 952.375 504.305C952.414 503.984 952.496 503.699 952.621 503.449C952.754 503.191 952.949 502.984 953.207 502.828C953.465 502.672 953.82 502.594 954.273 502.594C954.727 502.594 955.082 502.672 955.34 502.828C955.598 502.984 955.789 503.191 955.914 503.449C956.047 503.699 956.129 503.984 956.16 504.305C956.199 504.625 956.219 504.953 956.219 505.289V516.305C956.219 516.648 956.203 516.98 956.172 517.301C956.141 517.621 956.059 517.91 955.926 518.168C955.801 518.418 955.605 518.621 955.34 518.777C955.082 518.926 954.727 519 954.273 519C953.82 519 953.465 518.926 953.207 518.777C952.949 518.621 952.754 518.418 952.621 518.168C952.496 517.91 952.414 517.621 952.375 517.301C952.344 516.98 952.328 516.648 952.328 516.305V505.289ZM968.898 514.148H969.18V504.422C969.18 504.172 969.195 503.938 969.227 503.719C969.258 503.492 969.324 503.297 969.426 503.133C969.535 502.969 969.691 502.84 969.895 502.746C970.105 502.645 970.391 502.594 970.75 502.594C971.148 502.594 971.461 502.645 971.688 502.746C971.922 502.84 972.098 502.969 972.215 503.133C972.332 503.297 972.406 503.492 972.438 503.719C972.469 503.938 972.484 504.172 972.484 504.422V516.305C972.484 516.648 972.473 516.98 972.449 517.301C972.434 517.621 972.371 517.91 972.262 518.168C972.16 518.418 971.988 518.621 971.746 518.777C971.512 518.926 971.18 519 970.75 519H969.203C968.836 519 968.527 518.93 968.277 518.789C968.035 518.641 967.832 518.465 967.668 518.262C967.504 518.051 967.371 517.832 967.27 517.605C967.176 517.379 967.102 517.188 967.047 517.031L963.508 507.445H963.227V517.172C963.227 517.422 963.211 517.66 963.18 517.887C963.148 518.105 963.078 518.297 962.969 518.461C962.867 518.625 962.711 518.758 962.5 518.859C962.297 518.953 962.016 519 961.656 519C961.25 519 960.93 518.953 960.695 518.859C960.461 518.758 960.285 518.625 960.168 518.461C960.051 518.297 959.977 518.105 959.945 517.887C959.914 517.66 959.898 517.422 959.898 517.172V505.289C959.898 504.953 959.906 504.625 959.922 504.305C959.945 503.977 960.012 503.688 960.121 503.438C960.23 503.18 960.402 502.977 960.637 502.828C960.879 502.672 961.219 502.594 961.656 502.594H963.203C963.594 502.594 963.91 502.672 964.152 502.828C964.402 502.977 964.605 503.141 964.762 503.32C964.934 503.531 965.07 503.773 965.172 504.047L968.898 514.148ZM986.664 517.922C986.664 518.023 986.652 518.141 986.629 518.273C986.613 518.406 986.562 518.535 986.477 518.66C986.398 518.777 986.281 518.879 986.125 518.965C985.969 519.051 985.758 519.094 985.492 519.094C985.195 519.094 984.961 519.055 984.789 518.977C984.617 518.891 984.484 518.789 984.391 518.672C984.305 518.547 984.246 518.418 984.215 518.285C984.191 518.152 984.18 518.031 984.18 517.922V517.219C983.805 517.773 983.324 518.227 982.738 518.578C982.16 518.922 981.445 519.094 980.594 519.094C980.445 519.094 980.215 519.082 979.902 519.059C979.59 519.035 979.238 518.973 978.848 518.871C978.457 518.77 978.055 518.617 977.641 518.414C977.227 518.211 976.848 517.93 976.504 517.57C976.168 517.203 975.891 516.75 975.672 516.211C975.453 515.664 975.344 515 975.344 514.219V507.656C975.344 507.016 975.422 506.449 975.578 505.957C975.734 505.465 975.938 505.039 976.188 504.68C976.445 504.312 976.738 504.008 977.066 503.766C977.395 503.516 977.73 503.309 978.074 503.145C978.871 502.77 979.781 502.555 980.805 502.5C981.672 502.5 982.414 502.598 983.031 502.793C983.648 502.988 984.172 503.242 984.602 503.555C985.031 503.867 985.375 504.223 985.633 504.621C985.891 505.012 986.09 505.41 986.23 505.816C986.371 506.223 986.461 506.613 986.5 506.988C986.547 507.363 986.57 507.688 986.57 507.961C986.57 508.078 986.559 508.223 986.535 508.395C986.52 508.559 986.453 508.719 986.336 508.875C986.219 509.023 986.031 509.152 985.773 509.262C985.523 509.363 985.164 509.414 984.695 509.414C984.531 509.414 984.328 509.406 984.086 509.391C983.852 509.367 983.625 509.316 983.406 509.238C983.188 509.16 983 509.047 982.844 508.898C982.688 508.742 982.609 508.531 982.609 508.266C982.609 507.844 982.582 507.469 982.527 507.141C982.48 506.805 982.391 506.52 982.258 506.285C982.125 506.051 981.941 505.875 981.707 505.758C981.473 505.633 981.172 505.57 980.805 505.57C980.422 505.57 980.125 505.648 979.914 505.805C979.711 505.961 979.562 506.133 979.469 506.32C979.359 506.539 979.297 506.789 979.281 507.07V514.57C979.281 514.82 979.324 515.055 979.41 515.273C979.504 515.492 979.633 515.684 979.797 515.848C979.961 516.012 980.152 516.141 980.371 516.234C980.598 516.328 980.844 516.375 981.109 516.375C981.422 516.375 981.703 516.309 981.953 516.176C982.211 516.035 982.441 515.852 982.645 515.625C982.848 515.391 983.027 515.129 983.184 514.84C983.348 514.543 983.492 514.234 983.617 513.914H982.492C982.266 513.891 982.066 513.832 981.895 513.738C981.738 513.66 981.598 513.543 981.473 513.387C981.355 513.23 981.297 513.016 981.297 512.742C981.297 512.445 981.355 512.219 981.473 512.062C981.598 511.898 981.738 511.777 981.895 511.699C982.066 511.613 982.266 511.562 982.492 511.547H985.539C985.594 511.547 985.68 511.559 985.797 511.582C985.922 511.598 986.047 511.652 986.172 511.746C986.305 511.84 986.418 511.98 986.512 512.168C986.613 512.348 986.664 512.602 986.664 512.93V517.922ZM1003.28 519.094C1002.42 519.094 1001.68 518.996 1001.05 518.801C1000.44 518.605 999.914 518.352 999.484 518.039C999.062 517.727 998.723 517.375 998.465 516.984C998.207 516.586 998.008 516.184 997.867 515.777C997.734 515.371 997.645 514.98 997.598 514.605C997.559 514.23 997.539 513.906 997.539 513.633C997.539 513.516 997.547 513.375 997.562 513.211C997.586 513.039 997.656 512.875 997.773 512.719C997.891 512.562 998.074 512.43 998.324 512.32C998.582 512.211 998.945 512.156 999.414 512.156C999.57 512.156 999.766 512.168 1000 512.191C1000.23 512.207 1000.46 512.258 1000.68 512.344C1000.9 512.422 1001.09 512.539 1001.24 512.695C1001.4 512.852 1001.48 513.062 1001.48 513.328C1001.48 513.75 1001.5 514.129 1001.55 514.465C1001.6 514.801 1001.7 515.086 1001.83 515.32C1001.96 515.555 1002.14 515.734 1002.38 515.859C1002.61 515.984 1002.91 516.047 1003.28 516.047C1003.66 516.047 1003.96 515.969 1004.16 515.812C1004.37 515.656 1004.52 515.48 1004.62 515.285C1004.73 515.066 1004.79 514.812 1004.8 514.523V505.922H1001.73C1001.42 505.922 1001.11 505.906 1000.8 505.875C1000.48 505.844 1000.2 505.773 999.941 505.664C999.691 505.555 999.484 505.391 999.32 505.172C999.164 504.953 999.086 504.656 999.086 504.281C999.086 503.898 999.164 503.594 999.32 503.367C999.484 503.141 999.691 502.973 999.941 502.863C1000.2 502.746 1000.48 502.672 1000.8 502.641C1001.11 502.609 1001.42 502.594 1001.73 502.594H1006.52C1006.96 502.594 1007.31 502.672 1007.57 502.828C1007.84 502.984 1008.04 503.191 1008.17 503.449C1008.3 503.699 1008.39 503.984 1008.43 504.305C1008.46 504.625 1008.48 504.953 1008.48 505.289V514.195C1008.48 515.008 1008.37 515.695 1008.13 516.258C1007.9 516.82 1007.6 517.285 1007.24 517.652C1006.89 518.012 1006.5 518.289 1006.07 518.484C1005.65 518.68 1005.24 518.824 1004.85 518.918C1004.47 519.004 1004.13 519.055 1003.84 519.07C1003.55 519.086 1003.37 519.094 1003.28 519.094ZM1011.86 505.266C1011.86 504.93 1011.87 504.602 1011.88 504.281C1011.91 503.961 1011.97 503.676 1012.08 503.426C1012.19 503.176 1012.36 502.977 1012.6 502.828C1012.84 502.672 1013.18 502.594 1013.62 502.594H1017.48C1018.45 502.641 1019.3 502.844 1020.06 503.203C1020.38 503.359 1020.7 503.555 1021 503.789C1021.31 504.016 1021.59 504.301 1021.83 504.645C1022.07 504.98 1022.27 505.379 1022.42 505.84C1022.57 506.301 1022.64 506.836 1022.64 507.445C1022.64 507.57 1022.63 507.738 1022.61 507.949C1022.58 508.152 1022.53 508.379 1022.45 508.629C1022.38 508.871 1022.27 509.125 1022.14 509.391C1022 509.656 1021.83 509.91 1021.61 510.152C1021.39 510.395 1021.12 510.617 1020.8 510.82C1020.49 511.023 1020.12 511.188 1019.69 511.312C1019.96 511.422 1020.24 511.566 1020.52 511.746C1020.8 511.918 1021.05 512.141 1021.28 512.414C1021.51 512.688 1021.69 513.016 1021.83 513.398C1021.98 513.781 1022.05 514.227 1022.05 514.734V516.398C1022.05 516.492 1022.08 516.57 1022.12 516.633C1022.17 516.695 1022.22 516.75 1022.27 516.797C1022.45 516.984 1022.56 517.148 1022.59 517.289C1022.62 517.422 1022.64 517.531 1022.64 517.617C1022.64 517.891 1022.59 518.121 1022.48 518.309C1022.37 518.496 1022.22 518.648 1022.04 518.766C1021.87 518.883 1021.67 518.965 1021.45 519.012C1021.23 519.066 1021 519.094 1020.77 519.094C1020.51 519.094 1020.25 519.055 1019.98 518.977C1019.71 518.891 1019.47 518.77 1019.25 518.613C1019.04 518.457 1018.86 518.262 1018.71 518.027C1018.58 517.793 1018.52 517.523 1018.52 517.219V514.734C1018.52 514.391 1018.49 514.074 1018.45 513.785C1018.4 513.496 1018.31 513.246 1018.18 513.035C1018.04 512.824 1017.86 512.66 1017.62 512.543C1017.39 512.426 1017.09 512.367 1016.71 512.367H1015.4V516.281C1015.4 516.625 1015.39 516.961 1015.36 517.289C1015.35 517.617 1015.29 517.91 1015.18 518.168C1015.07 518.418 1014.89 518.621 1014.65 518.777C1014.41 518.926 1014.06 519 1013.62 519C1013.18 519 1012.84 518.926 1012.6 518.777C1012.36 518.621 1012.19 518.418 1012.08 518.168C1011.97 517.91 1011.91 517.617 1011.88 517.289C1011.87 516.961 1011.86 516.625 1011.86 516.281V505.266ZM1016.99 509.742C1017.38 509.727 1017.73 509.633 1018.05 509.461C1018.18 509.391 1018.31 509.301 1018.43 509.191C1018.56 509.082 1018.67 508.945 1018.77 508.781C1018.88 508.617 1018.95 508.426 1019.01 508.207C1019.07 507.988 1019.1 507.734 1019.1 507.445C1019.1 507.188 1019.07 506.961 1019.01 506.766C1018.95 506.562 1018.88 506.387 1018.79 506.238C1018.69 506.09 1018.58 505.965 1018.46 505.863C1018.34 505.762 1018.22 505.68 1018.09 505.617C1017.8 505.469 1017.46 505.383 1017.09 505.359H1015.4V509.742H1016.99ZM1029.02 517.055C1029.02 517.719 1028.85 518.211 1028.51 518.531C1028.18 518.844 1027.7 519 1027.09 519C1026.47 519 1025.99 518.844 1025.65 518.531C1025.32 518.211 1025.15 517.719 1025.15 517.055C1025.15 516.383 1025.32 515.895 1025.65 515.59C1025.99 515.285 1026.47 515.133 1027.09 515.133C1027.74 515.133 1028.22 515.285 1028.54 515.59C1028.86 515.895 1029.02 516.383 1029.02 517.055Z" fill="white"/>
<path d="M729.16 278.84C729.395 278.477 729.651 278.221 729.928 278.072C730.227 277.923 730.6 277.848 731.048 277.848C731.773 277.848 732.424 277.987 733 278.264C732.893 279.565 732.787 280.888 732.68 282.232C732.573 283.576 732.499 284.803 732.456 285.912C732.157 286.083 731.784 286.232 731.336 286.36C730.909 286.488 730.483 286.552 730.056 286.552C729.736 286.552 729.416 286.52 729.096 286.456C728.797 286.392 728.52 286.285 728.264 286.136C728.029 285.987 727.837 285.784 727.688 285.528C727.56 285.272 727.496 284.952 727.496 284.568C727.496 284.163 727.539 283.693 727.624 283.16C727.709 282.627 727.827 282.104 727.976 281.592C728.147 281.059 728.328 280.547 728.52 280.056C728.712 279.565 728.925 279.16 729.16 278.84ZM722.632 278.84C722.867 278.477 723.123 278.221 723.4 278.072C723.699 277.923 724.072 277.848 724.52 277.848C725.245 277.848 725.896 277.987 726.472 278.264C726.365 279.565 726.259 280.888 726.152 282.232C726.045 283.576 725.971 284.803 725.928 285.912C725.629 286.083 725.256 286.232 724.808 286.36C724.381 286.488 723.955 286.552 723.528 286.552C723.208 286.552 722.888 286.52 722.568 286.456C722.269 286.392 721.992 286.285 721.736 286.136C721.501 285.987 721.309 285.784 721.16 285.528C721.032 285.272 720.968 284.952 720.968 284.568C720.968 284.163 721.011 283.693 721.096 283.16C721.181 282.627 721.299 282.104 721.448 281.592C721.619 281.059 721.8 280.547 721.992 280.056C722.184 279.565 722.397 279.16 722.632 278.84ZM741.383 298.872C741.148 298.936 740.775 299 740.263 299.064C739.772 299.128 739.282 299.16 738.791 299.16C738.3 299.16 737.863 299.117 737.479 299.032C737.116 298.968 736.807 298.84 736.551 298.648C736.295 298.456 736.103 298.189 735.975 297.848C735.847 297.507 735.783 297.059 735.783 296.504V279.608C736.018 279.565 736.391 279.512 736.903 279.448C737.415 279.363 737.906 279.32 738.375 279.32C738.866 279.32 739.292 279.363 739.655 279.448C740.039 279.512 740.359 279.64 740.615 279.832C740.871 280.024 741.063 280.291 741.191 280.632C741.319 280.973 741.383 281.421 741.383 281.976V298.872ZM763.101 298.328C762.802 298.627 762.365 298.851 761.789 299C761.234 299.171 760.562 299.256 759.773 299.256C758.984 299.256 758.237 299.139 757.533 298.904C756.829 298.669 756.253 298.104 755.805 297.208L752.637 290.744C752.317 290.083 752.029 289.464 751.773 288.888C751.517 288.291 751.24 287.608 750.941 286.84L750.749 286.872C750.834 288.024 750.877 289.197 750.877 290.392C750.898 291.587 750.909 292.76 750.909 293.912V298.872C750.674 298.936 750.312 299 749.821 299.064C749.352 299.128 748.882 299.16 748.413 299.16C747.944 299.16 747.528 299.128 747.165 299.064C746.802 299 746.504 298.872 746.269 298.68C746.034 298.488 745.853 298.232 745.725 297.912C745.597 297.571 745.533 297.133 745.533 296.6V280.6C745.832 280.173 746.29 279.853 746.909 279.64C747.528 279.427 748.189 279.32 748.893 279.32C749.682 279.32 750.429 279.448 751.133 279.704C751.858 279.939 752.434 280.493 752.861 281.368L756.061 287.832C756.381 288.493 756.669 289.123 756.925 289.72C757.181 290.296 757.458 290.968 757.757 291.736L757.917 291.704C757.832 290.552 757.778 289.4 757.757 288.248C757.736 287.096 757.725 285.944 757.725 284.792V279.608C757.96 279.544 758.312 279.48 758.781 279.416C759.272 279.352 759.752 279.32 760.221 279.32C761.16 279.32 761.874 279.491 762.365 279.832C762.856 280.152 763.101 280.835 763.101 281.88V298.328ZM766.356 284.088C766.207 283.853 766.068 283.533 765.94 283.128C765.812 282.723 765.748 282.296 765.748 281.848C765.748 281.016 765.929 280.419 766.292 280.056C766.676 279.693 767.167 279.512 767.764 279.512H781.716C781.865 279.747 782.004 280.067 782.132 280.472C782.26 280.877 782.324 281.304 782.324 281.752C782.324 282.584 782.132 283.181 781.748 283.544C781.385 283.907 780.905 284.088 780.308 284.088H776.756V298.872C776.521 298.936 776.148 299 775.636 299.064C775.145 299.128 774.655 299.16 774.164 299.16C773.673 299.16 773.236 299.117 772.852 299.032C772.489 298.968 772.18 298.84 771.924 298.648C771.668 298.456 771.476 298.189 771.348 297.848C771.22 297.507 771.156 297.059 771.156 296.504V284.088H766.356ZM785.033 282.584C785.033 281.667 785.3 280.941 785.833 280.408C786.366 279.875 787.092 279.608 788.009 279.608H798.569C798.718 279.843 798.846 280.152 798.953 280.536C799.081 280.92 799.145 281.325 799.145 281.752C799.145 282.563 798.964 283.139 798.601 283.48C798.26 283.821 797.801 283.992 797.225 283.992H790.473V286.968H797.673C797.822 287.203 797.95 287.512 798.057 287.896C798.185 288.259 798.249 288.653 798.249 289.08C798.249 289.891 798.078 290.467 797.737 290.808C797.396 291.149 796.937 291.32 796.361 291.32H790.473V294.68H798.697C798.846 294.915 798.974 295.224 799.081 295.608C799.209 295.992 799.273 296.397 799.273 296.824C799.273 297.635 799.092 298.221 798.729 298.584C798.388 298.925 797.929 299.096 797.353 299.096H788.009C787.092 299.096 786.366 298.829 785.833 298.296C785.3 297.763 785.033 297.037 785.033 296.12V282.584ZM805.54 299.096C804.623 299.096 803.898 298.829 803.364 298.296C802.831 297.763 802.564 297.037 802.564 296.12V279.576C802.799 279.533 803.172 279.48 803.684 279.416C804.196 279.331 804.687 279.288 805.156 279.288C805.647 279.288 806.074 279.331 806.436 279.416C806.82 279.48 807.14 279.608 807.396 279.8C807.652 279.992 807.844 280.259 807.972 280.6C808.1 280.941 808.164 281.389 808.164 281.944V294.584H815.492C815.642 294.819 815.78 295.139 815.908 295.544C816.036 295.928 816.1 296.333 816.1 296.76C816.1 297.613 815.919 298.221 815.556 298.584C815.194 298.925 814.714 299.096 814.116 299.096H805.54ZM824.571 298.872C824.336 298.936 823.963 299 823.451 299.064C822.96 299.128 822.469 299.16 821.979 299.16C821.488 299.16 821.051 299.117 820.667 299.032C820.304 298.968 819.995 298.84 819.739 298.648C819.483 298.456 819.291 298.189 819.163 297.848C819.035 297.507 818.971 297.059 818.971 296.504V279.608C819.205 279.565 819.579 279.512 820.091 279.448C820.603 279.363 821.093 279.32 821.563 279.32C822.053 279.32 822.48 279.363 822.843 279.448C823.227 279.512 823.547 279.64 823.803 279.832C824.059 280.024 824.251 280.291 824.379 280.632C824.507 280.973 824.571 281.421 824.571 281.976V298.872ZM846.289 295.832C846.289 296.493 846.171 296.984 845.937 297.304C845.702 297.624 845.329 297.933 844.817 298.232C844.518 298.403 844.145 298.573 843.697 298.744C843.249 298.893 842.758 299.021 842.225 299.128C841.691 299.256 841.126 299.352 840.529 299.416C839.953 299.48 839.377 299.512 838.801 299.512C837.265 299.512 835.825 299.309 834.481 298.904C833.137 298.477 831.963 297.848 830.961 297.016C829.979 296.163 829.201 295.107 828.625 293.848C828.049 292.589 827.761 291.128 827.761 289.464C827.761 287.715 828.07 286.189 828.689 284.888C829.329 283.587 830.161 282.509 831.185 281.656C832.23 280.781 833.414 280.131 834.737 279.704C836.081 279.277 837.457 279.064 838.865 279.064C840.891 279.064 842.491 279.395 843.665 280.056C844.859 280.696 845.457 281.539 845.457 282.584C845.457 283.139 845.318 283.619 845.041 284.024C844.763 284.429 844.443 284.749 844.081 284.984C843.547 284.664 842.875 284.355 842.065 284.056C841.275 283.736 840.379 283.576 839.377 283.576C837.585 283.576 836.155 284.088 835.089 285.112C834.043 286.136 833.521 287.555 833.521 289.368C833.521 290.349 833.659 291.203 833.937 291.928C834.235 292.632 834.63 293.219 835.121 293.688C835.611 294.136 836.177 294.477 836.817 294.712C837.457 294.925 838.139 295.032 838.865 295.032C839.334 295.032 839.75 294.989 840.113 294.904C840.475 294.819 840.753 294.723 840.945 294.616V291.608H837.521C837.393 291.373 837.265 291.064 837.137 290.68C837.03 290.296 836.977 289.891 836.977 289.464C836.977 288.696 837.147 288.141 837.489 287.8C837.851 287.459 838.31 287.288 838.865 287.288H844.273C844.913 287.288 845.403 287.469 845.745 287.832C846.107 288.173 846.289 288.664 846.289 289.304V295.832ZM849.971 282.584C849.971 281.667 850.237 280.941 850.771 280.408C851.304 279.875 852.029 279.608 852.947 279.608H863.507C863.656 279.843 863.784 280.152 863.891 280.536C864.019 280.92 864.083 281.325 864.083 281.752C864.083 282.563 863.901 283.139 863.539 283.48C863.197 283.821 862.739 283.992 862.163 283.992H855.411V286.968H862.611C862.76 287.203 862.888 287.512 862.995 287.896C863.123 288.259 863.187 288.653 863.187 289.08C863.187 289.891 863.016 290.467 862.675 290.808C862.333 291.149 861.875 291.32 861.299 291.32H855.411V294.68H863.635C863.784 294.915 863.912 295.224 864.019 295.608C864.147 295.992 864.211 296.397 864.211 296.824C864.211 297.635 864.029 298.221 863.667 298.584C863.325 298.925 862.867 299.096 862.291 299.096H852.947C852.029 299.096 851.304 298.829 850.771 298.296C850.237 297.763 849.971 297.037 849.971 296.12V282.584ZM885.07 298.328C884.771 298.627 884.334 298.851 883.758 299C883.203 299.171 882.531 299.256 881.742 299.256C880.953 299.256 880.206 299.139 879.502 298.904C878.798 298.669 878.222 298.104 877.774 297.208L874.606 290.744C874.286 290.083 873.998 289.464 873.742 288.888C873.486 288.291 873.209 287.608 872.91 286.84L872.718 286.872C872.803 288.024 872.846 289.197 872.846 290.392C872.867 291.587 872.878 292.76 872.878 293.912V298.872C872.643 298.936 872.281 299 871.79 299.064C871.321 299.128 870.851 299.16 870.382 299.16C869.913 299.16 869.497 299.128 869.134 299.064C868.771 299 868.473 298.872 868.238 298.68C868.003 298.488 867.822 298.232 867.694 297.912C867.566 297.571 867.502 297.133 867.502 296.6V280.6C867.801 280.173 868.259 279.853 868.878 279.64C869.497 279.427 870.158 279.32 870.862 279.32C871.651 279.32 872.398 279.448 873.102 279.704C873.827 279.939 874.403 280.493 874.83 281.368L878.03 287.832C878.35 288.493 878.638 289.123 878.894 289.72C879.15 290.296 879.427 290.968 879.726 291.736L879.886 291.704C879.801 290.552 879.747 289.4 879.726 288.248C879.705 287.096 879.694 285.944 879.694 284.792V279.608C879.929 279.544 880.281 279.48 880.75 279.416C881.241 279.352 881.721 279.32 882.19 279.32C883.129 279.32 883.843 279.491 884.334 279.832C884.825 280.152 885.07 280.835 885.07 281.88V298.328ZM888.325 284.088C888.175 283.853 888.037 283.533 887.909 283.128C887.781 282.723 887.717 282.296 887.717 281.848C887.717 281.016 887.898 280.419 888.261 280.056C888.645 279.693 889.135 279.512 889.733 279.512H903.685C903.834 279.747 903.973 280.067 904.101 280.472C904.229 280.877 904.293 281.304 904.293 281.752C904.293 282.584 904.101 283.181 903.717 283.544C903.354 283.907 902.874 284.088 902.277 284.088H898.725V298.872C898.49 298.936 898.117 299 897.605 299.064C897.114 299.128 896.623 299.16 896.133 299.16C895.642 299.16 895.205 299.117 894.821 299.032C894.458 298.968 894.149 298.84 893.893 298.648C893.637 298.456 893.445 298.189 893.317 297.848C893.189 297.507 893.125 297.059 893.125 296.504V284.088H888.325ZM896.709 306.136C896.346 306.52 895.951 306.787 895.525 306.936C895.119 307.107 894.671 307.192 894.181 307.192C893.37 307.192 892.687 306.947 892.133 306.456C892.581 305.56 892.911 304.685 893.125 303.832C893.359 303 893.53 302.168 893.637 301.336C893.978 301.165 894.373 301.005 894.821 300.856C895.29 300.728 895.759 300.664 896.229 300.664C896.911 300.664 897.466 300.792 897.893 301.048C898.319 301.304 898.533 301.731 898.533 302.328C898.533 302.584 898.469 302.883 898.341 303.224C898.234 303.587 898.095 303.939 897.925 304.28C897.754 304.643 897.562 304.984 897.349 305.304C897.135 305.645 896.922 305.923 896.709 306.136ZM909.849 280.184C910.211 279.971 910.755 279.768 911.481 279.576C912.227 279.384 912.974 279.288 913.721 279.288C914.787 279.288 915.726 279.448 916.537 279.768C917.369 280.067 917.902 280.547 918.137 281.208C918.521 282.317 918.937 283.608 919.385 285.08C919.833 286.552 920.281 288.077 920.729 289.656C921.177 291.213 921.614 292.76 922.041 294.296C922.467 295.811 922.841 297.155 923.161 298.328C922.905 298.627 922.521 298.861 922.009 299.032C921.497 299.224 920.889 299.32 920.185 299.32C919.673 299.32 919.235 299.277 918.873 299.192C918.531 299.107 918.243 298.979 918.009 298.808C917.795 298.637 917.614 298.413 917.465 298.136C917.337 297.859 917.219 297.539 917.113 297.176L916.537 294.968H910.745C910.574 295.608 910.403 296.269 910.233 296.952C910.062 297.635 909.891 298.296 909.721 298.936C909.422 299.043 909.102 299.128 908.761 299.192C908.441 299.277 908.046 299.32 907.577 299.32C906.489 299.32 905.678 299.139 905.145 298.776C904.633 298.392 904.377 297.869 904.377 297.208C904.377 296.909 904.419 296.611 904.505 296.312C904.59 296.013 904.686 295.661 904.793 295.256C904.942 294.68 905.145 293.965 905.401 293.112C905.678 292.259 905.977 291.341 906.297 290.36C906.617 289.357 906.958 288.333 907.321 287.288C907.683 286.243 908.025 285.261 908.345 284.344C908.665 283.405 908.953 282.573 909.209 281.848C909.486 281.123 909.699 280.568 909.849 280.184ZM913.689 284.312C913.39 285.208 913.049 286.211 912.665 287.32C912.302 288.408 911.971 289.517 911.673 290.648H915.641C915.342 289.496 915.033 288.376 914.713 287.288C914.414 286.179 914.137 285.187 913.881 284.312H913.689ZM939.453 288.6C940.349 288.6 941.032 288.397 941.501 287.992C941.992 287.565 942.237 286.925 942.237 286.072C942.237 285.261 941.981 284.643 941.469 284.216C940.979 283.768 940.253 283.544 939.293 283.544C938.952 283.544 938.664 283.555 938.429 283.576C938.216 283.576 937.992 283.597 937.757 283.64V288.6H939.453ZM937.789 298.872C937.555 298.936 937.181 299 936.669 299.064C936.179 299.128 935.688 299.16 935.197 299.16C934.707 299.16 934.269 299.117 933.885 299.032C933.523 298.968 933.213 298.84 932.957 298.648C932.701 298.456 932.509 298.189 932.381 297.848C932.253 297.507 932.189 297.059 932.189 296.504V281.432C932.189 280.984 932.307 280.643 932.541 280.408C932.797 280.152 933.139 279.949 933.565 279.8C934.291 279.544 935.112 279.363 936.029 279.256C936.968 279.128 937.907 279.064 938.845 279.064C941.789 279.064 944.04 279.693 945.597 280.952C947.155 282.211 947.933 283.917 947.933 286.072C947.933 287.117 947.763 288.067 947.421 288.92C947.101 289.752 946.611 290.477 945.949 291.096C945.309 291.693 944.488 292.163 943.485 292.504C942.504 292.824 941.363 292.984 940.061 292.984H937.789V298.872ZM953.759 299.096C952.842 299.096 952.116 298.829 951.583 298.296C951.05 297.763 950.783 297.037 950.783 296.12V279.576C951.018 279.533 951.391 279.48 951.903 279.416C952.415 279.331 952.906 279.288 953.375 279.288C953.866 279.288 954.292 279.331 954.655 279.416C955.039 279.48 955.359 279.608 955.615 279.8C955.871 279.992 956.063 280.259 956.191 280.6C956.319 280.941 956.383 281.389 956.383 281.944V294.584H963.711C963.86 294.819 963.999 295.139 964.127 295.544C964.255 295.928 964.319 296.333 964.319 296.76C964.319 297.613 964.138 298.221 963.775 298.584C963.412 298.925 962.932 299.096 962.335 299.096H953.759ZM984.061 291.832C984.061 292.984 983.858 294.04 983.453 295C983.069 295.939 982.504 296.749 981.757 297.432C981.01 298.093 980.104 298.605 979.037 298.968C977.97 299.331 976.765 299.512 975.421 299.512C974.077 299.512 972.872 299.331 971.805 298.968C970.738 298.605 969.832 298.093 969.085 297.432C968.338 296.749 967.762 295.939 967.357 295C966.973 294.04 966.781 292.984 966.781 291.832V279.608C967.016 279.565 967.389 279.512 967.901 279.448C968.413 279.363 968.904 279.32 969.373 279.32C969.864 279.32 970.29 279.363 970.653 279.448C971.037 279.512 971.357 279.64 971.613 279.832C971.869 280.024 972.061 280.291 972.189 280.632C972.317 280.973 972.381 281.421 972.381 281.976V291.736C972.381 292.76 972.658 293.56 973.213 294.136C973.789 294.712 974.525 295 975.421 295C976.338 295 977.074 294.712 977.629 294.136C978.184 293.56 978.461 292.76 978.461 291.736V279.608C978.696 279.565 979.069 279.512 979.581 279.448C980.093 279.363 980.584 279.32 981.053 279.32C981.544 279.32 981.97 279.363 982.333 279.448C982.717 279.512 983.037 279.64 983.293 279.832C983.549 280.024 983.741 280.291 983.869 280.632C983.997 280.973 984.061 281.421 984.061 281.976V291.832ZM993.631 291.288C992.692 290.968 991.839 290.648 991.071 290.328C990.303 289.987 989.642 289.581 989.087 289.112C988.532 288.643 988.095 288.088 987.775 287.448C987.476 286.787 987.327 285.987 987.327 285.048C987.327 283.235 988.02 281.784 989.407 280.696C990.815 279.608 992.778 279.064 995.295 279.064C996.212 279.064 997.066 279.128 997.855 279.256C998.644 279.384 999.316 279.587 999.871 279.864C1000.45 280.12 1000.89 280.461 1001.21 280.888C1001.53 281.293 1001.69 281.773 1001.69 282.328C1001.69 282.883 1001.57 283.363 1001.31 283.768C1001.05 284.152 1000.75 284.483 1000.38 284.76C999.914 284.461 999.284 284.205 998.495 283.992C997.706 283.757 996.842 283.64 995.903 283.64C994.943 283.64 994.239 283.779 993.791 284.056C993.343 284.312 993.119 284.643 993.119 285.048C993.119 285.368 993.258 285.635 993.535 285.848C993.812 286.04 994.228 286.221 994.783 286.392L996.479 286.936C998.484 287.576 1000.02 288.397 1001.09 289.4C1002.17 290.381 1002.72 291.725 1002.72 293.432C1002.72 295.245 1002 296.717 1000.57 297.848C999.146 298.957 997.044 299.512 994.271 299.512C993.29 299.512 992.372 299.427 991.519 299.256C990.687 299.107 989.951 298.883 989.311 298.584C988.692 298.264 988.202 297.88 987.839 297.432C987.498 296.963 987.327 296.429 987.327 295.832C987.327 295.213 987.508 294.691 987.871 294.264C988.234 293.816 988.628 293.475 989.055 293.24C989.652 293.709 990.378 294.115 991.231 294.456C992.106 294.797 993.055 294.968 994.079 294.968C995.124 294.968 995.86 294.808 996.287 294.488C996.714 294.168 996.927 293.795 996.927 293.368C996.927 292.941 996.756 292.621 996.415 292.408C996.074 292.173 995.594 291.949 994.975 291.736L993.631 291.288ZM741.062 333.512C739.419 333.512 738.16 334.013 737.286 335.016C736.411 336.019 735.974 337.437 735.974 339.272C735.974 341.128 736.454 342.557 737.414 343.56C738.395 344.563 739.707 345.064 741.35 345.064C742.224 345.064 742.96 344.947 743.558 344.712C744.176 344.477 744.763 344.211 745.318 343.912C745.68 344.211 745.958 344.573 746.15 345C746.363 345.405 746.47 345.885 746.47 346.44C746.47 347.315 745.979 348.061 744.998 348.68C744.038 349.277 742.566 349.576 740.582 349.576C739.152 349.576 737.808 349.373 736.55 348.968C735.291 348.563 734.192 347.944 733.254 347.112C732.315 346.259 731.568 345.192 731.014 343.912C730.48 342.611 730.214 341.064 730.214 339.272C730.214 337.608 730.47 336.147 730.982 334.888C731.515 333.608 732.23 332.531 733.126 331.656C734.043 330.781 735.11 330.12 736.326 329.672C737.542 329.224 738.843 329 740.23 329C742.192 329 743.707 329.32 744.774 329.96C745.862 330.6 746.406 331.421 746.406 332.424C746.406 332.979 746.267 333.459 745.99 333.864C745.712 334.269 745.392 334.589 745.03 334.824C744.475 334.461 743.878 334.152 743.238 333.896C742.619 333.64 741.894 333.512 741.062 333.512ZM754.052 330.184C754.414 329.971 754.958 329.768 755.684 329.576C756.43 329.384 757.177 329.288 757.924 329.288C758.99 329.288 759.929 329.448 760.74 329.768C761.572 330.067 762.105 330.547 762.34 331.208C762.724 332.317 763.14 333.608 763.588 335.08C764.036 336.552 764.484 338.077 764.932 339.656C765.38 341.213 765.817 342.76 766.244 344.296C766.67 345.811 767.044 347.155 767.364 348.328C767.108 348.627 766.724 348.861 766.212 349.032C765.7 349.224 765.092 349.32 764.388 349.32C763.876 349.32 763.438 349.277 763.076 349.192C762.734 349.107 762.446 348.979 762.212 348.808C761.998 348.637 761.817 348.413 761.668 348.136C761.54 347.859 761.422 347.539 761.316 347.176L760.74 344.968H754.948C754.777 345.608 754.606 346.269 754.436 346.952C754.265 347.635 754.094 348.296 753.924 348.936C753.625 349.043 753.305 349.128 752.964 349.192C752.644 349.277 752.249 349.32 751.78 349.32C750.692 349.32 749.881 349.139 749.348 348.776C748.836 348.392 748.58 347.869 748.58 347.208C748.58 346.909 748.622 346.611 748.708 346.312C748.793 346.013 748.889 345.661 748.996 345.256C749.145 344.68 749.348 343.965 749.604 343.112C749.881 342.259 750.18 341.341 750.5 340.36C750.82 339.357 751.161 338.333 751.524 337.288C751.886 336.243 752.228 335.261 752.548 334.344C752.868 333.405 753.156 332.573 753.412 331.848C753.689 331.123 753.902 330.568 754.052 330.184ZM757.892 334.312C757.593 335.208 757.252 336.211 756.868 337.32C756.505 338.408 756.174 339.517 755.876 340.648H759.844C759.545 339.496 759.236 338.376 758.916 337.288C758.617 336.179 758.34 335.187 758.084 334.312H757.892ZM775.554 342.728V348.872C775.32 348.936 774.946 349 774.434 349.064C773.944 349.128 773.453 349.16 772.962 349.16C772.472 349.16 772.034 349.117 771.65 349.032C771.288 348.968 770.978 348.84 770.722 348.648C770.488 348.456 770.306 348.189 770.178 347.848C770.05 347.507 769.986 347.059 769.986 346.504V331.432C769.986 330.984 770.104 330.643 770.338 330.408C770.594 330.152 770.936 329.949 771.362 329.8C772.088 329.544 772.93 329.363 773.89 329.256C774.85 329.128 775.874 329.064 776.962 329.064C779.906 329.064 782.125 329.683 783.618 330.92C785.112 332.157 785.858 333.832 785.858 335.944C785.858 337.267 785.517 338.397 784.834 339.336C784.152 340.275 783.341 341 782.402 341.512C783.17 342.557 783.928 343.539 784.674 344.456C785.421 345.373 786.008 346.205 786.434 346.952C786.221 347.699 785.826 348.275 785.25 348.68C784.696 349.064 784.066 349.256 783.362 349.256C782.893 349.256 782.488 349.203 782.146 349.096C781.805 348.989 781.506 348.84 781.25 348.648C780.994 348.456 780.76 348.221 780.546 347.944C780.333 347.667 780.13 347.368 779.938 347.048L777.25 342.728H775.554ZM777.57 338.472C778.381 338.472 779.021 338.269 779.49 337.864C779.96 337.437 780.194 336.819 780.194 336.008C780.194 335.197 779.928 334.589 779.394 334.184C778.882 333.757 778.061 333.544 776.93 333.544C776.61 333.544 776.354 333.555 776.162 333.576C775.97 333.597 775.757 333.629 775.522 333.672V338.472H777.57ZM793.864 330.184C794.227 329.971 794.771 329.768 795.496 329.576C796.243 329.384 796.99 329.288 797.736 329.288C798.803 329.288 799.742 329.448 800.552 329.768C801.384 330.067 801.918 330.547 802.152 331.208C802.536 332.317 802.952 333.608 803.4 335.08C803.848 336.552 804.296 338.077 804.744 339.656C805.192 341.213 805.63 342.76 806.056 344.296C806.483 345.811 806.856 347.155 807.176 348.328C806.92 348.627 806.536 348.861 806.024 349.032C805.512 349.224 804.904 349.32 804.2 349.32C803.688 349.32 803.251 349.277 802.888 349.192C802.547 349.107 802.259 348.979 802.024 348.808C801.811 348.637 801.63 348.413 801.48 348.136C801.352 347.859 801.235 347.539 801.128 347.176L800.552 344.968H794.76C794.59 345.608 794.419 346.269 794.248 346.952C794.078 347.635 793.907 348.296 793.736 348.936C793.438 349.043 793.118 349.128 792.776 349.192C792.456 349.277 792.062 349.32 791.592 349.32C790.504 349.32 789.694 349.139 789.16 348.776C788.648 348.392 788.392 347.869 788.392 347.208C788.392 346.909 788.435 346.611 788.52 346.312C788.606 346.013 788.702 345.661 788.808 345.256C788.958 344.68 789.16 343.965 789.416 343.112C789.694 342.259 789.992 341.341 790.312 340.36C790.632 339.357 790.974 338.333 791.336 337.288C791.699 336.243 792.04 335.261 792.36 334.344C792.68 333.405 792.968 332.573 793.224 331.848C793.502 331.123 793.715 330.568 793.864 330.184ZM797.704 334.312C797.406 335.208 797.064 336.211 796.68 337.32C796.318 338.408 795.987 339.517 795.688 340.648H799.656C799.358 339.496 799.048 338.376 798.728 337.288C798.43 336.179 798.152 335.187 797.896 334.312H797.704ZM819.374 333.512C817.732 333.512 816.473 334.013 815.598 335.016C814.724 336.019 814.286 337.437 814.286 339.272C814.286 341.128 814.766 342.557 815.726 343.56C816.708 344.563 818.02 345.064 819.662 345.064C820.537 345.064 821.273 344.947 821.87 344.712C822.489 344.477 823.076 344.211 823.63 343.912C823.993 344.211 824.27 344.573 824.462 345C824.676 345.405 824.782 345.885 824.782 346.44C824.782 347.315 824.292 348.061 823.31 348.68C822.35 349.277 820.878 349.576 818.894 349.576C817.465 349.576 816.121 349.373 814.862 348.968C813.604 348.563 812.505 347.944 811.566 347.112C810.628 346.259 809.881 345.192 809.326 343.912C808.793 342.611 808.526 341.064 808.526 339.272C808.526 337.608 808.782 336.147 809.294 334.888C809.828 333.608 810.542 332.531 811.438 331.656C812.356 330.781 813.422 330.12 814.638 329.672C815.854 329.224 817.156 329 818.542 329C820.505 329 822.02 329.32 823.086 329.96C824.174 330.6 824.718 331.421 824.718 332.424C824.718 332.979 824.58 333.459 824.302 333.864C824.025 334.269 823.705 334.589 823.342 334.824C822.788 334.461 822.19 334.152 821.55 333.896C820.932 333.64 820.206 333.512 819.374 333.512ZM827.309 334.088C827.16 333.853 827.021 333.533 826.893 333.128C826.765 332.723 826.701 332.296 826.701 331.848C826.701 331.016 826.882 330.419 827.245 330.056C827.629 329.693 828.12 329.512 828.717 329.512H842.669C842.818 329.747 842.957 330.067 843.085 330.472C843.213 330.877 843.277 331.304 843.277 331.752C843.277 332.584 843.085 333.181 842.701 333.544C842.338 333.907 841.858 334.088 841.261 334.088H837.709V348.872C837.474 348.936 837.101 349 836.589 349.064C836.098 349.128 835.608 349.16 835.117 349.16C834.626 349.16 834.189 349.117 833.805 349.032C833.442 348.968 833.133 348.84 832.877 348.648C832.621 348.456 832.429 348.189 832.301 347.848C832.173 347.507 832.109 347.059 832.109 346.504V334.088H827.309ZM845.986 332.584C845.986 331.667 846.253 330.941 846.786 330.408C847.32 329.875 848.045 329.608 848.962 329.608H859.522C859.672 329.843 859.8 330.152 859.906 330.536C860.034 330.92 860.098 331.325 860.098 331.752C860.098 332.563 859.917 333.139 859.554 333.48C859.213 333.821 858.754 333.992 858.178 333.992H851.426V336.968H858.626C858.776 337.203 858.904 337.512 859.01 337.896C859.138 338.259 859.202 338.653 859.202 339.08C859.202 339.891 859.032 340.467 858.69 340.808C858.349 341.149 857.89 341.32 857.314 341.32H851.426V344.68H859.65C859.8 344.915 859.928 345.224 860.034 345.608C860.162 345.992 860.226 346.397 860.226 346.824C860.226 347.635 860.045 348.221 859.682 348.584C859.341 348.925 858.882 349.096 858.306 349.096H848.962C848.045 349.096 847.32 348.829 846.786 348.296C846.253 347.763 845.986 347.037 845.986 346.12V332.584ZM869.086 342.728V348.872C868.851 348.936 868.478 349 867.966 349.064C867.475 349.128 866.984 349.16 866.494 349.16C866.003 349.16 865.566 349.117 865.182 349.032C864.819 348.968 864.51 348.84 864.254 348.648C864.019 348.456 863.838 348.189 863.71 347.848C863.582 347.507 863.518 347.059 863.518 346.504V331.432C863.518 330.984 863.635 330.643 863.87 330.408C864.126 330.152 864.467 329.949 864.894 329.8C865.619 329.544 866.462 329.363 867.422 329.256C868.382 329.128 869.406 329.064 870.494 329.064C873.438 329.064 875.656 329.683 877.15 330.92C878.643 332.157 879.39 333.832 879.39 335.944C879.39 337.267 879.048 338.397 878.366 339.336C877.683 340.275 876.872 341 875.934 341.512C876.702 342.557 877.459 343.539 878.206 344.456C878.952 345.373 879.539 346.205 879.966 346.952C879.752 347.699 879.358 348.275 878.782 348.68C878.227 349.064 877.598 349.256 876.894 349.256C876.424 349.256 876.019 349.203 875.678 349.096C875.336 348.989 875.038 348.84 874.782 348.648C874.526 348.456 874.291 348.221 874.078 347.944C873.864 347.667 873.662 347.368 873.47 347.048L870.782 342.728H869.086ZM871.102 338.472C871.912 338.472 872.552 338.269 873.022 337.864C873.491 337.437 873.726 336.819 873.726 336.008C873.726 335.197 873.459 334.589 872.926 334.184C872.414 333.757 871.592 333.544 870.462 333.544C870.142 333.544 869.886 333.555 869.694 333.576C869.502 333.597 869.288 333.629 869.054 333.672V338.472H871.102ZM899.889 341.832C899.889 342.984 899.686 344.04 899.281 345C898.897 345.939 898.332 346.749 897.585 347.432C896.838 348.093 895.932 348.605 894.865 348.968C893.798 349.331 892.593 349.512 891.249 349.512C889.905 349.512 888.7 349.331 887.633 348.968C886.566 348.605 885.66 348.093 884.913 347.432C884.166 346.749 883.59 345.939 883.185 345C882.801 344.04 882.609 342.984 882.609 341.832V329.608C882.844 329.565 883.217 329.512 883.729 329.448C884.241 329.363 884.732 329.32 885.201 329.32C885.692 329.32 886.118 329.363 886.481 329.448C886.865 329.512 887.185 329.64 887.441 329.832C887.697 330.024 887.889 330.291 888.017 330.632C888.145 330.973 888.209 331.421 888.209 331.976V341.736C888.209 342.76 888.486 343.56 889.041 344.136C889.617 344.712 890.353 345 891.249 345C892.166 345 892.902 344.712 893.457 344.136C894.012 343.56 894.289 342.76 894.289 341.736V329.608C894.524 329.565 894.897 329.512 895.409 329.448C895.921 329.363 896.412 329.32 896.881 329.32C897.372 329.32 897.798 329.363 898.161 329.448C898.545 329.512 898.865 329.64 899.121 329.832C899.377 330.024 899.569 330.291 899.697 330.632C899.825 330.973 899.889 331.421 899.889 331.976V341.832ZM906.931 349.096C906.014 349.096 905.288 348.829 904.755 348.296C904.222 347.763 903.955 347.037 903.955 346.12V329.576C904.19 329.533 904.563 329.48 905.075 329.416C905.587 329.331 906.078 329.288 906.547 329.288C907.038 329.288 907.464 329.331 907.827 329.416C908.211 329.48 908.531 329.608 908.787 329.8C909.043 329.992 909.235 330.259 909.363 330.6C909.491 330.941 909.555 331.389 909.555 331.944V344.584H916.883C917.032 344.819 917.171 345.139 917.299 345.544C917.427 345.928 917.491 346.333 917.491 346.76C917.491 347.613 917.31 348.221 916.947 348.584C916.584 348.925 916.104 349.096 915.507 349.096H906.931ZM926.768 332.584C926.768 331.667 927.034 330.941 927.568 330.408C928.101 329.875 928.826 329.608 929.744 329.608H940.304C940.453 329.843 940.581 330.152 940.688 330.536C940.816 330.92 940.88 331.325 940.88 331.752C940.88 332.563 940.698 333.139 940.336 333.48C939.994 333.821 939.536 333.992 938.96 333.992H932.208V336.968H939.408C939.557 337.203 939.685 337.512 939.792 337.896C939.92 338.259 939.984 338.653 939.984 339.08C939.984 339.891 939.813 340.467 939.472 340.808C939.13 341.149 938.672 341.32 938.096 341.32H932.208V344.68H940.432C940.581 344.915 940.709 345.224 940.816 345.608C940.944 345.992 941.008 346.397 941.008 346.824C941.008 347.635 940.826 348.221 940.464 348.584C940.122 348.925 939.664 349.096 939.088 349.096H929.744C928.826 349.096 928.101 348.829 927.568 348.296C927.034 347.763 926.768 347.037 926.768 346.12V332.584ZM949.959 341.288C949.02 340.968 948.167 340.648 947.399 340.328C946.631 339.987 945.97 339.581 945.415 339.112C944.86 338.643 944.423 338.088 944.103 337.448C943.804 336.787 943.655 335.987 943.655 335.048C943.655 333.235 944.348 331.784 945.735 330.696C947.143 329.608 949.106 329.064 951.623 329.064C952.54 329.064 953.394 329.128 954.183 329.256C954.972 329.384 955.644 329.587 956.199 329.864C956.775 330.12 957.223 330.461 957.543 330.888C957.863 331.293 958.023 331.773 958.023 332.328C958.023 332.883 957.895 333.363 957.639 333.768C957.383 334.152 957.074 334.483 956.711 334.76C956.242 334.461 955.612 334.205 954.823 333.992C954.034 333.757 953.17 333.64 952.231 333.64C951.271 333.64 950.567 333.779 950.119 334.056C949.671 334.312 949.447 334.643 949.447 335.048C949.447 335.368 949.586 335.635 949.863 335.848C950.14 336.04 950.556 336.221 951.111 336.392L952.807 336.936C954.812 337.576 956.348 338.397 957.415 339.4C958.503 340.381 959.047 341.725 959.047 343.432C959.047 345.245 958.332 346.717 956.903 347.848C955.474 348.957 953.372 349.512 950.599 349.512C949.618 349.512 948.7 349.427 947.847 349.256C947.015 349.107 946.279 348.883 945.639 348.584C945.02 348.264 944.53 347.88 944.167 347.432C943.826 346.963 943.655 346.429 943.655 345.832C943.655 345.213 943.836 344.691 944.199 344.264C944.562 343.816 944.956 343.475 945.383 343.24C945.98 343.709 946.706 344.115 947.559 344.456C948.434 344.797 949.383 344.968 950.407 344.968C951.452 344.968 952.188 344.808 952.615 344.488C953.042 344.168 953.255 343.795 953.255 343.368C953.255 342.941 953.084 342.621 952.743 342.408C952.402 342.173 951.922 341.949 951.303 341.736L949.959 341.288ZM960.778 334.088C960.628 333.853 960.49 333.533 960.362 333.128C960.234 332.723 960.17 332.296 960.17 331.848C960.17 331.016 960.351 330.419 960.714 330.056C961.098 329.693 961.588 329.512 962.186 329.512H976.138C976.287 329.747 976.426 330.067 976.554 330.472C976.682 330.877 976.746 331.304 976.746 331.752C976.746 332.584 976.554 333.181 976.17 333.544C975.807 333.907 975.327 334.088 974.73 334.088H971.178V348.872C970.943 348.936 970.57 349 970.058 349.064C969.567 349.128 969.076 349.16 968.586 349.16C968.095 349.16 967.658 349.117 967.274 349.032C966.911 348.968 966.602 348.84 966.346 348.648C966.09 348.456 965.898 348.189 965.77 347.848C965.642 347.507 965.578 347.059 965.578 346.504V334.088H960.778ZM979.455 332.584C979.455 331.667 979.722 330.941 980.255 330.408C980.788 329.875 981.514 329.608 982.431 329.608H992.991C993.14 329.843 993.268 330.152 993.375 330.536C993.503 330.92 993.567 331.325 993.567 331.752C993.567 332.563 993.386 333.139 993.023 333.48C992.682 333.821 992.223 333.992 991.647 333.992H984.895V336.968H992.095C992.244 337.203 992.372 337.512 992.479 337.896C992.607 338.259 992.671 338.653 992.671 339.08C992.671 339.891 992.5 340.467 992.159 340.808C991.818 341.149 991.359 341.32 990.783 341.32H984.895V344.68H993.119C993.268 344.915 993.396 345.224 993.503 345.608C993.631 345.992 993.695 346.397 993.695 346.824C993.695 347.635 993.514 348.221 993.151 348.584C992.81 348.925 992.351 349.096 991.775 349.096H982.431C981.514 349.096 980.788 348.829 980.255 348.296C979.722 347.763 979.455 347.037 979.455 346.12V332.584ZM718.131 391.288C717.192 390.968 716.339 390.648 715.571 390.328C714.803 389.987 714.142 389.581 713.587 389.112C713.032 388.643 712.595 388.088 712.275 387.448C711.976 386.787 711.827 385.987 711.827 385.048C711.827 383.235 712.52 381.784 713.907 380.696C715.315 379.608 717.278 379.064 719.795 379.064C720.712 379.064 721.566 379.128 722.355 379.256C723.144 379.384 723.816 379.587 724.371 379.864C724.947 380.12 725.395 380.461 725.715 380.888C726.035 381.293 726.195 381.773 726.195 382.328C726.195 382.883 726.067 383.363 725.811 383.768C725.555 384.152 725.246 384.483 724.883 384.76C724.414 384.461 723.784 384.205 722.995 383.992C722.206 383.757 721.342 383.64 720.403 383.64C719.443 383.64 718.739 383.779 718.291 384.056C717.843 384.312 717.619 384.643 717.619 385.048C717.619 385.368 717.758 385.635 718.035 385.848C718.312 386.04 718.728 386.221 719.283 386.392L720.979 386.936C722.984 387.576 724.52 388.397 725.587 389.4C726.675 390.381 727.219 391.725 727.219 393.432C727.219 395.245 726.504 396.717 725.075 397.848C723.646 398.957 721.544 399.512 718.771 399.512C717.79 399.512 716.872 399.427 716.019 399.256C715.187 399.107 714.451 398.883 713.811 398.584C713.192 398.264 712.702 397.88 712.339 397.432C711.998 396.963 711.827 396.429 711.827 395.832C711.827 395.213 712.008 394.691 712.371 394.264C712.734 393.816 713.128 393.475 713.555 393.24C714.152 393.709 714.878 394.115 715.731 394.456C716.606 394.797 717.555 394.968 718.579 394.968C719.624 394.968 720.36 394.808 720.787 394.488C721.214 394.168 721.427 393.795 721.427 393.368C721.427 392.941 721.256 392.621 720.915 392.408C720.574 392.173 720.094 391.949 719.475 391.736L718.131 391.288ZM740.265 383.512C738.622 383.512 737.364 384.013 736.489 385.016C735.614 386.019 735.177 387.437 735.177 389.272C735.177 391.128 735.657 392.557 736.617 393.56C737.598 394.563 738.91 395.064 740.553 395.064C741.428 395.064 742.164 394.947 742.761 394.712C743.38 394.477 743.966 394.211 744.521 393.912C744.884 394.211 745.161 394.573 745.353 395C745.566 395.405 745.673 395.885 745.673 396.44C745.673 397.315 745.182 398.061 744.201 398.68C743.241 399.277 741.769 399.576 739.785 399.576C738.356 399.576 737.012 399.373 735.753 398.968C734.494 398.563 733.396 397.944 732.457 397.112C731.518 396.259 730.772 395.192 730.217 393.912C729.684 392.611 729.417 391.064 729.417 389.272C729.417 387.608 729.673 386.147 730.185 384.888C730.718 383.608 731.433 382.531 732.329 381.656C733.246 380.781 734.313 380.12 735.529 379.672C736.745 379.224 738.046 379 739.433 379C741.396 379 742.91 379.32 743.977 379.96C745.065 380.6 745.609 381.421 745.609 382.424C745.609 382.979 745.47 383.459 745.193 383.864C744.916 384.269 744.596 384.589 744.233 384.824C743.678 384.461 743.081 384.152 742.441 383.896C741.822 383.64 741.097 383.512 740.265 383.512ZM747.386 389.272C747.386 387.608 747.642 386.136 748.154 384.856C748.687 383.576 749.402 382.509 750.298 381.656C751.215 380.781 752.282 380.12 753.498 379.672C754.735 379.224 756.068 379 757.498 379C758.927 379 760.25 379.224 761.466 379.672C762.703 380.12 763.78 380.781 764.698 381.656C765.615 382.509 766.33 383.576 766.842 384.856C767.375 386.136 767.642 387.608 767.642 389.272C767.642 390.936 767.386 392.419 766.874 393.72C766.362 395 765.647 396.077 764.73 396.952C763.834 397.805 762.767 398.456 761.53 398.904C760.292 399.352 758.948 399.576 757.498 399.576C756.047 399.576 754.703 399.352 753.466 398.904C752.228 398.435 751.162 397.763 750.266 396.888C749.37 396.013 748.666 394.936 748.154 393.656C747.642 392.376 747.386 390.915 747.386 389.272ZM753.146 389.272C753.146 391.213 753.54 392.664 754.33 393.624C755.119 394.584 756.175 395.064 757.498 395.064C758.842 395.064 759.908 394.584 760.698 393.624C761.487 392.664 761.882 391.213 761.882 389.272C761.882 387.352 761.487 385.912 760.698 384.952C759.93 383.992 758.874 383.512 757.53 383.512C756.207 383.512 755.14 383.992 754.33 384.952C753.54 385.891 753.146 387.331 753.146 389.272ZM778.11 388.6C779.006 388.6 779.688 388.397 780.158 387.992C780.648 387.565 780.894 386.925 780.894 386.072C780.894 385.261 780.638 384.643 780.126 384.216C779.635 383.768 778.91 383.544 777.95 383.544C777.608 383.544 777.32 383.555 777.086 383.576C776.872 383.576 776.648 383.597 776.414 383.64V388.6H778.11ZM776.446 398.872C776.211 398.936 775.838 399 775.326 399.064C774.835 399.128 774.344 399.16 773.854 399.16C773.363 399.16 772.926 399.117 772.542 399.032C772.179 398.968 771.87 398.84 771.614 398.648C771.358 398.456 771.166 398.189 771.038 397.848C770.91 397.507 770.846 397.059 770.846 396.504V381.432C770.846 380.984 770.963 380.643 771.198 380.408C771.454 380.152 771.795 379.949 772.222 379.8C772.947 379.544 773.768 379.363 774.686 379.256C775.624 379.128 776.563 379.064 777.502 379.064C780.446 379.064 782.696 379.693 784.254 380.952C785.811 382.211 786.59 383.917 786.59 386.072C786.59 387.117 786.419 388.067 786.078 388.92C785.758 389.752 785.267 390.477 784.606 391.096C783.966 391.693 783.144 392.163 782.142 392.504C781.16 392.824 780.019 392.984 778.718 392.984H776.446V398.872ZM806.623 391.832C806.623 392.984 806.421 394.04 806.015 395C805.631 395.939 805.066 396.749 804.319 397.432C803.573 398.093 802.666 398.605 801.599 398.968C800.533 399.331 799.327 399.512 797.983 399.512C796.639 399.512 795.434 399.331 794.367 398.968C793.301 398.605 792.394 398.093 791.647 397.432C790.901 396.749 790.325 395.939 789.919 395C789.535 394.04 789.343 392.984 789.343 391.832V379.608C789.578 379.565 789.951 379.512 790.463 379.448C790.975 379.363 791.466 379.32 791.935 379.32C792.426 379.32 792.853 379.363 793.215 379.448C793.599 379.512 793.919 379.64 794.175 379.832C794.431 380.024 794.623 380.291 794.751 380.632C794.879 380.973 794.943 381.421 794.943 381.976V391.736C794.943 392.76 795.221 393.56 795.775 394.136C796.351 394.712 797.087 395 797.983 395C798.901 395 799.637 394.712 800.191 394.136C800.746 393.56 801.023 392.76 801.023 391.736V379.608C801.258 379.565 801.631 379.512 802.143 379.448C802.655 379.363 803.146 379.32 803.615 379.32C804.106 379.32 804.533 379.363 804.895 379.448C805.279 379.512 805.599 379.64 805.855 379.832C806.111 380.024 806.303 380.291 806.431 380.632C806.559 380.973 806.623 381.421 806.623 381.976V391.832ZM813.665 399.096C812.748 399.096 812.023 398.829 811.489 398.296C810.956 397.763 810.689 397.037 810.689 396.12V379.576C810.924 379.533 811.297 379.48 811.809 379.416C812.321 379.331 812.812 379.288 813.281 379.288C813.772 379.288 814.199 379.331 814.561 379.416C814.945 379.48 815.265 379.608 815.521 379.8C815.777 379.992 815.969 380.259 816.097 380.6C816.225 380.941 816.289 381.389 816.289 381.944V394.584H823.617C823.767 394.819 823.905 395.139 824.033 395.544C824.161 395.928 824.225 396.333 824.225 396.76C824.225 397.613 824.044 398.221 823.681 398.584C823.319 398.925 822.839 399.096 822.241 399.096H813.665ZM837.63 380.184C837.993 379.971 838.537 379.768 839.262 379.576C840.009 379.384 840.755 379.288 841.502 379.288C842.569 379.288 843.507 379.448 844.318 379.768C845.15 380.067 845.683 380.547 845.918 381.208C846.302 382.317 846.718 383.608 847.166 385.08C847.614 386.552 848.062 388.077 848.51 389.656C848.958 391.213 849.395 392.76 849.822 394.296C850.249 395.811 850.622 397.155 850.942 398.328C850.686 398.627 850.302 398.861 849.79 399.032C849.278 399.224 848.67 399.32 847.966 399.32C847.454 399.32 847.017 399.277 846.654 399.192C846.313 399.107 846.025 398.979 845.79 398.808C845.577 398.637 845.395 398.413 845.246 398.136C845.118 397.859 845.001 397.539 844.894 397.176L844.318 394.968H838.526C838.355 395.608 838.185 396.269 838.014 396.952C837.843 397.635 837.673 398.296 837.502 398.936C837.203 399.043 836.883 399.128 836.542 399.192C836.222 399.277 835.827 399.32 835.358 399.32C834.27 399.32 833.459 399.139 832.926 398.776C832.414 398.392 832.158 397.869 832.158 397.208C832.158 396.909 832.201 396.611 832.286 396.312C832.371 396.013 832.467 395.661 832.574 395.256C832.723 394.68 832.926 393.965 833.182 393.112C833.459 392.259 833.758 391.341 834.078 390.36C834.398 389.357 834.739 388.333 835.102 387.288C835.465 386.243 835.806 385.261 836.126 384.344C836.446 383.405 836.734 382.573 836.99 381.848C837.267 381.123 837.481 380.568 837.63 380.184ZM841.47 384.312C841.171 385.208 840.83 386.211 840.446 387.32C840.083 388.408 839.753 389.517 839.454 390.648H843.422C843.123 389.496 842.814 388.376 842.494 387.288C842.195 386.179 841.918 385.187 841.662 384.312H841.47ZM859.132 394.84C859.367 394.883 859.655 394.925 859.996 394.968C860.338 394.989 860.658 395 860.956 395C861.682 395 862.343 394.893 862.94 394.68C863.559 394.467 864.082 394.136 864.508 393.688C864.956 393.24 865.298 392.664 865.532 391.96C865.788 391.235 865.916 390.371 865.916 389.368C865.916 387.448 865.468 386.008 864.572 385.048C863.676 384.067 862.482 383.576 860.988 383.576C860.69 383.576 860.38 383.587 860.06 383.608C859.762 383.629 859.452 383.661 859.132 383.704V394.84ZM860.924 399.512C860.562 399.512 860.146 399.501 859.676 399.48C859.207 399.459 858.716 399.416 858.204 399.352C857.714 399.288 857.212 399.203 856.7 399.096C856.21 399.011 855.751 398.883 855.324 398.712C854.151 398.264 853.564 397.485 853.564 396.376V381.432C853.564 380.984 853.682 380.643 853.916 380.408C854.172 380.152 854.514 379.949 854.94 379.8C855.858 379.501 856.828 379.309 857.852 379.224C858.876 379.117 859.794 379.064 860.604 379.064C862.268 379.064 863.772 379.267 865.116 379.672C866.482 380.077 867.644 380.707 868.604 381.56C869.586 382.392 870.343 383.448 870.876 384.728C871.41 386.008 871.676 387.523 871.676 389.272C871.676 390.979 871.42 392.472 870.908 393.752C870.396 395.011 869.66 396.077 868.7 396.952C867.762 397.805 866.631 398.445 865.308 398.872C863.986 399.299 862.524 399.512 860.924 399.512ZM874.877 382.584C874.877 381.667 875.144 380.941 875.677 380.408C876.21 379.875 876.936 379.608 877.853 379.608H888.413C888.562 379.843 888.69 380.152 888.797 380.536C888.925 380.92 888.989 381.325 888.989 381.752C888.989 382.563 888.808 383.139 888.445 383.48C888.104 383.821 887.645 383.992 887.069 383.992H880.317V386.968H887.517C887.666 387.203 887.794 387.512 887.901 387.896C888.029 388.259 888.093 388.653 888.093 389.08C888.093 389.891 887.922 390.467 887.581 390.808C887.24 391.149 886.781 391.32 886.205 391.32H880.317V394.68H888.541C888.69 394.915 888.818 395.224 888.925 395.608C889.053 395.992 889.117 396.397 889.117 396.824C889.117 397.635 888.936 398.221 888.573 398.584C888.232 398.925 887.773 399.096 887.197 399.096H877.853C876.936 399.096 876.21 398.829 875.677 398.296C875.144 397.763 874.877 397.037 874.877 396.12V382.584ZM904.024 398.36C903.725 398.616 903.256 398.84 902.616 399.032C901.997 399.224 901.315 399.32 900.568 399.32C899.672 399.32 898.904 399.192 898.264 398.936C897.624 398.659 897.187 398.285 896.952 397.816C896.717 397.325 896.429 396.696 896.088 395.928C895.747 395.139 895.384 394.264 895 393.304C894.637 392.344 894.253 391.331 893.848 390.264C893.464 389.176 893.091 388.077 892.728 386.968C892.365 385.859 892.024 384.771 891.704 383.704C891.384 382.637 891.107 381.635 890.872 380.696C891.171 380.397 891.597 380.131 892.152 379.896C892.728 379.64 893.336 379.512 893.976 379.512C894.765 379.512 895.405 379.683 895.896 380.024C896.408 380.344 896.781 380.952 897.016 381.848C897.592 383.939 898.168 385.944 898.744 387.864C899.341 389.763 899.96 391.747 900.6 393.816H900.792C901.368 391.811 901.955 389.624 902.552 387.256C903.171 384.888 903.757 382.531 904.312 380.184C904.696 379.992 905.101 379.832 905.528 379.704C905.976 379.576 906.477 379.512 907.032 379.512C907.821 379.512 908.493 379.693 909.048 380.056C909.603 380.397 909.88 380.973 909.88 381.784C909.88 382.253 909.763 382.936 909.528 383.832C909.315 384.728 909.027 385.741 908.664 386.872C908.323 387.981 907.928 389.144 907.48 390.36C907.053 391.576 906.616 392.728 906.168 393.816C905.741 394.883 905.336 395.832 904.952 396.664C904.568 397.475 904.259 398.04 904.024 398.36ZM919.753 377.848C917.961 377.848 916.585 377.528 915.625 376.888C914.665 376.227 914.185 375.416 914.185 374.456C914.185 373.901 914.387 373.379 914.793 372.888C915.219 372.397 915.87 372.152 916.745 372.152C916.851 372.152 916.947 372.152 917.033 372.152C917.118 372.152 917.214 372.163 917.321 372.184C917.427 372.653 917.694 373.048 918.121 373.368C918.547 373.688 919.091 373.848 919.753 373.848C920.414 373.848 920.947 373.688 921.353 373.368C921.779 373.048 922.057 372.653 922.185 372.184C922.291 372.163 922.387 372.152 922.473 372.152C922.558 372.152 922.654 372.152 922.761 372.152C923.635 372.152 924.275 372.397 924.681 372.888C925.107 373.379 925.321 373.901 925.321 374.456C925.321 375.416 924.841 376.227 923.881 376.888C922.921 377.528 921.545 377.848 919.753 377.848ZM915.849 380.184C916.211 379.971 916.755 379.768 917.481 379.576C918.227 379.384 918.974 379.288 919.721 379.288C920.787 379.288 921.726 379.448 922.537 379.768C923.369 380.067 923.902 380.547 924.137 381.208C924.521 382.317 924.937 383.608 925.385 385.08C925.833 386.552 926.281 388.077 926.729 389.656C927.177 391.213 927.614 392.76 928.041 394.296C928.467 395.811 928.841 397.155 929.161 398.328C928.905 398.627 928.521 398.861 928.009 399.032C927.497 399.224 926.889 399.32 926.185 399.32C925.673 399.32 925.235 399.277 924.873 399.192C924.531 399.107 924.243 398.979 924.009 398.808C923.795 398.637 923.614 398.413 923.465 398.136C923.337 397.859 923.219 397.539 923.113 397.176L922.537 394.968H916.745C916.574 395.608 916.403 396.269 916.233 396.952C916.062 397.635 915.891 398.296 915.721 398.936C915.422 399.043 915.102 399.128 914.761 399.192C914.441 399.277 914.046 399.32 913.577 399.32C912.489 399.32 911.678 399.139 911.145 398.776C910.633 398.392 910.377 397.869 910.377 397.208C910.377 396.909 910.419 396.611 910.505 396.312C910.59 396.013 910.686 395.661 910.793 395.256C910.942 394.68 911.145 393.965 911.401 393.112C911.678 392.259 911.977 391.341 912.297 390.36C912.617 389.357 912.958 388.333 913.321 387.288C913.683 386.243 914.025 385.261 914.345 384.344C914.665 383.405 914.953 382.573 915.209 381.848C915.486 381.123 915.699 380.568 915.849 380.184ZM919.689 384.312C919.39 385.208 919.049 386.211 918.665 387.32C918.302 388.408 917.971 389.517 917.673 390.648H921.641C921.342 389.496 921.033 388.376 920.713 387.288C920.414 386.179 920.137 385.187 919.881 384.312H919.689ZM937.351 392.728V398.872C937.116 398.936 936.743 399 936.231 399.064C935.74 399.128 935.25 399.16 934.759 399.16C934.268 399.16 933.831 399.117 933.447 399.032C933.084 398.968 932.775 398.84 932.519 398.648C932.284 398.456 932.103 398.189 931.975 397.848C931.847 397.507 931.783 397.059 931.783 396.504V381.432C931.783 380.984 931.9 380.643 932.135 380.408C932.391 380.152 932.732 379.949 933.159 379.8C933.884 379.544 934.727 379.363 935.687 379.256C936.647 379.128 937.671 379.064 938.759 379.064C941.703 379.064 943.922 379.683 945.415 380.92C946.908 382.157 947.655 383.832 947.655 385.944C947.655 387.267 947.314 388.397 946.631 389.336C945.948 390.275 945.138 391 944.199 391.512C944.967 392.557 945.724 393.539 946.471 394.456C947.218 395.373 947.804 396.205 948.231 396.952C948.018 397.699 947.623 398.275 947.047 398.68C946.492 399.064 945.863 399.256 945.159 399.256C944.69 399.256 944.284 399.203 943.943 399.096C943.602 398.989 943.303 398.84 943.047 398.648C942.791 398.456 942.556 398.221 942.343 397.944C942.13 397.667 941.927 397.368 941.735 397.048L939.047 392.728H937.351ZM939.367 388.472C940.178 388.472 940.818 388.269 941.287 387.864C941.756 387.437 941.991 386.819 941.991 386.008C941.991 385.197 941.724 384.589 941.191 384.184C940.679 383.757 939.858 383.544 938.727 383.544C938.407 383.544 938.151 383.555 937.959 383.576C937.767 383.597 937.554 383.629 937.319 383.672V388.472H939.367ZM955.661 380.184C956.024 379.971 956.568 379.768 957.293 379.576C958.04 379.384 958.786 379.288 959.533 379.288C960.6 379.288 961.538 379.448 962.349 379.768C963.181 380.067 963.714 380.547 963.949 381.208C964.333 382.317 964.749 383.608 965.197 385.08C965.645 386.552 966.093 388.077 966.541 389.656C966.989 391.213 967.426 392.76 967.853 394.296C968.28 395.811 968.653 397.155 968.973 398.328C968.717 398.627 968.333 398.861 967.821 399.032C967.309 399.224 966.701 399.32 965.997 399.32C965.485 399.32 965.048 399.277 964.685 399.192C964.344 399.107 964.056 398.979 963.821 398.808C963.608 398.637 963.426 398.413 963.277 398.136C963.149 397.859 963.032 397.539 962.925 397.176L962.349 394.968H956.557C956.386 395.608 956.216 396.269 956.045 396.952C955.874 397.635 955.704 398.296 955.533 398.936C955.234 399.043 954.914 399.128 954.573 399.192C954.253 399.277 953.858 399.32 953.389 399.32C952.301 399.32 951.49 399.139 950.957 398.776C950.445 398.392 950.189 397.869 950.189 397.208C950.189 396.909 950.232 396.611 950.317 396.312C950.402 396.013 950.498 395.661 950.605 395.256C950.754 394.68 950.957 393.965 951.213 393.112C951.49 392.259 951.789 391.341 952.109 390.36C952.429 389.357 952.77 388.333 953.133 387.288C953.496 386.243 953.837 385.261 954.157 384.344C954.477 383.405 954.765 382.573 955.021 381.848C955.298 381.123 955.512 380.568 955.661 380.184ZM959.501 384.312C959.202 385.208 958.861 386.211 958.477 387.32C958.114 388.408 957.784 389.517 957.485 390.648H961.453C961.154 389.496 960.845 388.376 960.525 387.288C960.226 386.179 959.949 385.187 959.693 384.312H959.501ZM969.575 384.088C969.425 383.853 969.287 383.533 969.159 383.128C969.031 382.723 968.967 382.296 968.967 381.848C968.967 381.016 969.148 380.419 969.511 380.056C969.895 379.693 970.385 379.512 970.983 379.512H984.935C985.084 379.747 985.223 380.067 985.351 380.472C985.479 380.877 985.543 381.304 985.543 381.752C985.543 382.584 985.351 383.181 984.967 383.544C984.604 383.907 984.124 384.088 983.527 384.088H979.975V398.872C979.74 398.936 979.367 399 978.855 399.064C978.364 399.128 977.873 399.16 977.383 399.16C976.892 399.16 976.455 399.117 976.071 399.032C975.708 398.968 975.399 398.84 975.143 398.648C974.887 398.456 974.695 398.189 974.567 397.848C974.439 397.507 974.375 397.059 974.375 396.504V384.088H969.575ZM988.252 382.584C988.252 381.667 988.519 380.941 989.052 380.408C989.585 379.875 990.311 379.608 991.228 379.608H1001.79C1001.94 379.843 1002.07 380.152 1002.17 380.536C1002.3 380.92 1002.36 381.325 1002.36 381.752C1002.36 382.563 1002.18 383.139 1001.82 383.48C1001.48 383.821 1001.02 383.992 1000.44 383.992H993.692V386.968H1000.89C1001.04 387.203 1001.17 387.512 1001.28 387.896C1001.4 388.259 1001.47 388.653 1001.47 389.08C1001.47 389.891 1001.3 390.467 1000.96 390.808C1000.61 391.149 1000.16 391.32 999.58 391.32H993.692V394.68H1001.92C1002.07 394.915 1002.19 395.224 1002.3 395.608C1002.43 395.992 1002.49 396.397 1002.49 396.824C1002.49 397.635 1002.31 398.221 1001.95 398.584C1001.61 398.925 1001.15 399.096 1000.57 399.096H991.228C990.311 399.096 989.585 398.829 989.052 398.296C988.519 397.763 988.252 397.037 988.252 396.12V382.584ZM1011.38 398.872C1011.15 398.936 1010.78 399 1010.26 399.064C1009.77 399.128 1009.28 399.16 1008.79 399.16C1008.3 399.16 1007.86 399.117 1007.48 399.032C1007.12 398.968 1006.81 398.84 1006.55 398.648C1006.3 398.456 1006.1 398.189 1005.98 397.848C1005.85 397.507 1005.78 397.059 1005.78 396.504V379.608C1006.02 379.565 1006.39 379.512 1006.9 379.448C1007.42 379.363 1007.91 379.32 1008.38 379.32C1008.87 379.32 1009.29 379.363 1009.66 379.448C1010.04 379.512 1010.36 379.64 1010.62 379.832C1010.87 380.024 1011.06 380.291 1011.19 380.632C1011.32 380.973 1011.38 381.421 1011.38 381.976V398.872ZM789.861 432.584C789.861 431.667 790.128 430.941 790.661 430.408C791.195 429.875 791.92 429.608 792.837 429.608H803.397C803.547 429.843 803.675 430.152 803.781 430.536C803.909 430.92 803.973 431.325 803.973 431.752C803.973 432.563 803.792 433.139 803.429 433.48C803.088 433.821 802.629 433.992 802.053 433.992H795.301V436.968H802.501C802.651 437.203 802.779 437.512 802.885 437.896C803.013 438.259 803.077 438.653 803.077 439.08C803.077 439.891 802.907 440.467 802.565 440.808C802.224 441.149 801.765 441.32 801.189 441.32H795.301V444.68H803.525C803.675 444.915 803.803 445.224 803.909 445.608C804.037 445.992 804.101 446.397 804.101 446.824C804.101 447.635 803.92 448.221 803.557 448.584C803.216 448.925 802.757 449.096 802.181 449.096H792.837C791.92 449.096 791.195 448.829 790.661 448.296C790.128 447.763 789.861 447.037 789.861 446.12V432.584ZM812.961 444.84C813.195 444.883 813.483 444.925 813.825 444.968C814.166 444.989 814.486 445 814.785 445C815.51 445 816.171 444.893 816.769 444.68C817.387 444.467 817.91 444.136 818.337 443.688C818.785 443.24 819.126 442.664 819.361 441.96C819.617 441.235 819.745 440.371 819.745 439.368C819.745 437.448 819.297 436.008 818.401 435.048C817.505 434.067 816.31 433.576 814.817 433.576C814.518 433.576 814.209 433.587 813.889 433.608C813.59 433.629 813.281 433.661 812.961 433.704V444.84ZM814.753 449.512C814.39 449.512 813.974 449.501 813.505 449.48C813.035 449.459 812.545 449.416 812.033 449.352C811.542 449.288 811.041 449.203 810.529 449.096C810.038 449.011 809.579 448.883 809.153 448.712C807.979 448.264 807.393 447.485 807.393 446.376V431.432C807.393 430.984 807.51 430.643 807.745 430.408C808.001 430.152 808.342 429.949 808.769 429.8C809.686 429.501 810.657 429.309 811.681 429.224C812.705 429.117 813.622 429.064 814.433 429.064C816.097 429.064 817.601 429.267 818.945 429.672C820.31 430.077 821.473 430.707 822.433 431.56C823.414 432.392 824.171 433.448 824.705 434.728C825.238 436.008 825.505 437.523 825.505 439.272C825.505 440.979 825.249 442.472 824.737 443.752C824.225 445.011 823.489 446.077 822.529 446.952C821.59 447.805 820.459 448.445 819.137 448.872C817.814 449.299 816.353 449.512 814.753 449.512ZM845.889 441.832C845.889 442.984 845.686 444.04 845.281 445C844.897 445.939 844.332 446.749 843.585 447.432C842.838 448.093 841.932 448.605 840.865 448.968C839.798 449.331 838.593 449.512 837.249 449.512C835.905 449.512 834.7 449.331 833.633 448.968C832.566 448.605 831.66 448.093 830.913 447.432C830.166 446.749 829.59 445.939 829.185 445C828.801 444.04 828.609 442.984 828.609 441.832V429.608C828.844 429.565 829.217 429.512 829.729 429.448C830.241 429.363 830.732 429.32 831.201 429.32C831.692 429.32 832.118 429.363 832.481 429.448C832.865 429.512 833.185 429.64 833.441 429.832C833.697 430.024 833.889 430.291 834.017 430.632C834.145 430.973 834.209 431.421 834.209 431.976V441.736C834.209 442.76 834.486 443.56 835.041 444.136C835.617 444.712 836.353 445 837.249 445C838.166 445 838.902 444.712 839.457 444.136C840.012 443.56 840.289 442.76 840.289 441.736V429.608C840.524 429.565 840.897 429.512 841.409 429.448C841.921 429.363 842.412 429.32 842.881 429.32C843.372 429.32 843.798 429.363 844.161 429.448C844.545 429.512 844.865 429.64 845.121 429.832C845.377 430.024 845.569 430.291 845.697 430.632C845.825 430.973 845.889 431.421 845.889 431.976V441.832ZM859.843 433.512C858.2 433.512 856.942 434.013 856.067 435.016C855.192 436.019 854.755 437.437 854.755 439.272C854.755 441.128 855.235 442.557 856.195 443.56C857.176 444.563 858.488 445.064 860.131 445.064C861.006 445.064 861.742 444.947 862.339 444.712C862.958 444.477 863.544 444.211 864.099 443.912C864.462 444.211 864.739 444.573 864.931 445C865.144 445.405 865.251 445.885 865.251 446.44C865.251 447.315 864.76 448.061 863.779 448.68C862.819 449.277 861.347 449.576 859.363 449.576C857.934 449.576 856.59 449.373 855.331 448.968C854.072 448.563 852.974 447.944 852.035 447.112C851.096 446.259 850.35 445.192 849.795 443.912C849.262 442.611 848.995 441.064 848.995 439.272C848.995 437.608 849.251 436.147 849.763 434.888C850.296 433.608 851.011 432.531 851.907 431.656C852.824 430.781 853.891 430.12 855.107 429.672C856.323 429.224 857.624 429 859.011 429C860.974 429 862.488 429.32 863.555 429.96C864.643 430.6 865.187 431.421 865.187 432.424C865.187 432.979 865.048 433.459 864.771 433.864C864.494 434.269 864.174 434.589 863.811 434.824C863.256 434.461 862.659 434.152 862.019 433.896C861.4 433.64 860.675 433.512 859.843 433.512ZM872.833 430.184C873.196 429.971 873.74 429.768 874.465 429.576C875.212 429.384 875.958 429.288 876.705 429.288C877.772 429.288 878.71 429.448 879.521 429.768C880.353 430.067 880.886 430.547 881.121 431.208C881.505 432.317 881.921 433.608 882.369 435.08C882.817 436.552 883.265 438.077 883.713 439.656C884.161 441.213 884.598 442.76 885.025 444.296C885.452 445.811 885.825 447.155 886.145 448.328C885.889 448.627 885.505 448.861 884.993 449.032C884.481 449.224 883.873 449.32 883.169 449.32C882.657 449.32 882.22 449.277 881.857 449.192C881.516 449.107 881.228 448.979 880.993 448.808C880.78 448.637 880.598 448.413 880.449 448.136C880.321 447.859 880.204 447.539 880.097 447.176L879.521 444.968H873.729C873.558 445.608 873.388 446.269 873.217 446.952C873.046 447.635 872.876 448.296 872.705 448.936C872.406 449.043 872.086 449.128 871.745 449.192C871.425 449.277 871.03 449.32 870.561 449.32C869.473 449.32 868.662 449.139 868.129 448.776C867.617 448.392 867.361 447.869 867.361 447.208C867.361 446.909 867.404 446.611 867.489 446.312C867.574 446.013 867.67 445.661 867.777 445.256C867.926 444.68 868.129 443.965 868.385 443.112C868.662 442.259 868.961 441.341 869.281 440.36C869.601 439.357 869.942 438.333 870.305 437.288C870.668 436.243 871.009 435.261 871.329 434.344C871.649 433.405 871.937 432.573 872.193 431.848C872.47 431.123 872.684 430.568 872.833 430.184ZM876.673 434.312C876.374 435.208 876.033 436.211 875.649 437.32C875.286 438.408 874.956 439.517 874.657 440.648H878.625C878.326 439.496 878.017 438.376 877.697 437.288C877.398 436.179 877.121 435.187 876.865 434.312H876.673ZM886.747 434.088C886.597 433.853 886.459 433.533 886.331 433.128C886.203 432.723 886.139 432.296 886.139 431.848C886.139 431.016 886.32 430.419 886.683 430.056C887.067 429.693 887.557 429.512 888.155 429.512H902.107C902.256 429.747 902.395 430.067 902.523 430.472C902.651 430.877 902.715 431.304 902.715 431.752C902.715 432.584 902.523 433.181 902.139 433.544C901.776 433.907 901.296 434.088 900.699 434.088H897.147V448.872C896.912 448.936 896.539 449 896.027 449.064C895.536 449.128 895.045 449.16 894.555 449.16C894.064 449.16 893.627 449.117 893.243 449.032C892.88 448.968 892.571 448.84 892.315 448.648C892.059 448.456 891.867 448.189 891.739 447.848C891.611 447.507 891.547 447.059 891.547 446.504V434.088H886.747ZM895.131 456.136C894.768 456.52 894.373 456.787 893.947 456.936C893.541 457.107 893.093 457.192 892.603 457.192C891.792 457.192 891.109 456.947 890.555 456.456C891.003 455.56 891.333 454.685 891.547 453.832C891.781 453 891.952 452.168 892.059 451.336C892.4 451.165 892.795 451.005 893.243 450.856C893.712 450.728 894.181 450.664 894.651 450.664C895.333 450.664 895.888 450.792 896.315 451.048C896.741 451.304 896.955 451.731 896.955 452.328C896.955 452.584 896.891 452.883 896.763 453.224C896.656 453.587 896.517 453.939 896.347 454.28C896.176 454.643 895.984 454.984 895.771 455.304C895.557 455.645 895.344 455.923 895.131 456.136ZM911.024 448.872C910.789 448.936 910.416 449 909.904 449.064C909.413 449.128 908.922 449.16 908.432 449.16C907.941 449.16 907.504 449.117 907.12 449.032C906.757 448.968 906.448 448.84 906.192 448.648C905.936 448.456 905.744 448.189 905.616 447.848C905.488 447.507 905.424 447.059 905.424 446.504V429.608C905.658 429.565 906.032 429.512 906.544 429.448C907.056 429.363 907.546 429.32 908.016 429.32C908.506 429.32 908.933 429.363 909.296 429.448C909.68 429.512 910 429.64 910.256 429.832C910.512 430.024 910.704 430.291 910.832 430.632C910.96 430.973 911.024 431.421 911.024 431.976V448.872ZM920.774 448.872C920.539 448.936 920.166 449 919.654 449.064C919.163 449.128 918.672 449.16 918.182 449.16C917.691 449.16 917.254 449.117 916.87 449.032C916.507 448.968 916.198 448.84 915.942 448.648C915.686 448.456 915.494 448.189 915.366 447.848C915.238 447.507 915.174 447.059 915.174 446.504V429.608C915.408 429.565 915.782 429.512 916.294 429.448C916.806 429.363 917.296 429.32 917.766 429.32C918.256 429.32 918.683 429.363 919.046 429.448C919.43 429.512 919.75 429.64 920.006 429.832C920.262 430.024 920.454 430.291 920.582 430.632C920.71 430.973 920.774 431.421 920.774 431.976V448.872ZM927.388 435.56C927.153 435.923 926.886 436.179 926.588 436.328C926.31 436.477 925.948 436.552 925.5 436.552C924.774 436.552 924.124 436.413 923.548 436.136C923.654 434.835 923.761 433.512 923.868 432.168C923.974 430.824 924.049 429.597 924.092 428.488C924.39 428.317 924.753 428.168 925.18 428.04C925.628 427.912 926.065 427.848 926.492 427.848C926.812 427.848 927.121 427.88 927.42 427.944C927.74 428.008 928.017 428.115 928.252 428.264C928.508 428.413 928.7 428.616 928.828 428.872C928.977 429.128 929.052 429.448 929.052 429.832C929.052 430.259 929.009 430.739 928.924 431.272C928.838 431.784 928.71 432.307 928.54 432.84C928.39 433.352 928.209 433.853 927.996 434.344C927.804 434.835 927.601 435.24 927.388 435.56ZM933.916 435.56C933.681 435.923 933.414 436.179 933.116 436.328C932.838 436.477 932.476 436.552 932.028 436.552C931.302 436.552 930.652 436.413 930.076 436.136C930.182 434.835 930.289 433.512 930.396 432.168C930.502 430.824 930.577 429.597 930.62 428.488C930.918 428.317 931.281 428.168 931.708 428.04C932.156 427.912 932.593 427.848 933.02 427.848C933.34 427.848 933.649 427.88 933.948 427.944C934.268 428.008 934.545 428.115 934.78 428.264C935.036 428.413 935.228 428.616 935.356 428.872C935.505 429.128 935.58 429.448 935.58 429.832C935.58 430.259 935.537 430.739 935.452 431.272C935.366 431.784 935.238 432.307 935.068 432.84C934.918 433.352 934.737 433.853 934.524 434.344C934.332 434.835 934.129 435.24 933.916 435.56Z" fill="#455663"/>
<path d="M713.5 128.5C744.931 77.9774 793.207 55.8435 852 65C896.414 71.9172 924.681 90.0723 948 128.5C983.5 187 981.6 191.25 1009.5 227C1033.89 258.254 1049.34 274.698 1079 301" stroke="#B1C381" stroke-width="3" stroke-dasharray="6 6"/>
<path d="M596 397.5C594.235 437.066 599.644 461.406 618 496.5C629.566 518.612 639.453 529.275 656.5 547.5C682.46 575.253 699.956 589.141 733.5 607C762.775 622.586 781.536 626.657 813.5 635.5C842.141 643.424 858.367 648.771 888 651C905.135 652.289 914.817 651 932 651" stroke="#B1C381" stroke-width="3" stroke-dasharray="6 6"/>
</svg>
