<svg id="visual" viewBox="0 0 1920 1000" width="1920" height="1000" xmlns="http://www.w3.org/2000/svg" xmlns:xlink="http://www.w3.org/1999/xlink" version="1.1"><rect x="0" y="0" width="1920" height="1000" fill="#ffffff"></rect><g transform="translate(1010.4575114180777 520.7639863949535)"><path d="M131.7 -188.2C183.1 -113.9 245.7 -84.1 286.1 -25.3C326.5 33.6 344.7 121.5 310.1 176.8C275.5 232.1 188.2 254.6 100.6 294.4C12.9 334.2 -75.1 391.2 -155.5 381.7C-235.8 372.2 -308.4 296.1 -359.7 207.5C-410.9 119 -440.8 18 -425.1 -75.6C-409.4 -169.2 -348 -255.4 -269.6 -324.9C-191.1 -394.4 -95.6 -447.2 -27.7 -414.2C40.2 -381.2 80.4 -262.4 131.7 -188.2" fill="#B1C381"></path></g></svg>