<svg id="visual" viewBox="0 0 1920 300" width="1920" height="300" xmlns="http://www.w3.org/2000/svg" xmlns:xlink="http://www.w3.org/1999/xlink" version="1.1"><rect x="0" y="0" width="1920" height="300" fill="#ffffff"></rect><path d="M0 190L64 178.3C128 166.7 256 143.3 384 134.8C512 126.3 640 132.7 768 149.8C896 167 1024 195 1152 207C1280 219 1408 215 1536 204.3C1664 193.7 1792 176.3 1856 167.7L1920 159L1920 301L1856 301C1792 301 1664 301 1536 301C1408 301 1280 301 1152 301C1024 301 896 301 768 301C640 301 512 301 384 301C256 301 128 301 64 301L0 301Z" fill="#EEC759" stroke-linecap="round" stroke-linejoin="miter"></path></svg>