<svg id="visual" viewBox="0 0 1920 300" width="1920" height="300" xmlns="http://www.w3.org/2000/svg" xmlns:xlink="http://www.w3.org/1999/xlink" version="1.1"><rect x="0" y="0" width="1920" height="300" fill="#ffffff"></rect><path d="M0 132L64 124C128 116 256 100 384 110.8C512 121.7 640 159.3 768 162C896 164.7 1024 132.3 1152 129.3C1280 126.3 1408 152.7 1536 161.5C1664 170.3 1792 161.7 1856 157.3L1920 153L1920 301L1856 301C1792 301 1664 301 1536 301C1408 301 1280 301 1152 301C1024 301 896 301 768 301C640 301 512 301 384 301C256 301 128 301 64 301L0 301Z" fill="#B1C381" stroke-linecap="round" stroke-linejoin="miter"></path></svg>