<svg id="visual" viewBox="0 0 1920 300" width="1920" height="300" xmlns="http://www.w3.org/2000/svg" xmlns:xlink="http://www.w3.org/1999/xlink" version="1.1"><rect x="0" y="0" width="1920" height="300" fill="#ffffff"></rect><path d="M0 101L64 108.2C128 115.3 256 129.7 384 146.8C512 164 640 184 768 187C896 190 1024 176 1152 160.3C1280 144.7 1408 127.3 1536 122.5C1664 117.7 1792 125.3 1856 129.2L1920 133L1920 0L1856 0C1792 0 1664 0 1536 0C1408 0 1280 0 1152 0C1024 0 896 0 768 0C640 0 512 0 384 0C256 0 128 0 64 0L0 0Z" fill="#B1C381" stroke-linecap="round" stroke-linejoin="miter"></path></svg>