<svg width="1920" height="153" viewBox="0 0 1920 153" fill="none" xmlns="http://www.w3.org/2000/svg">
<path d="M0 153L45.7 138.2C91.3 123.3 182.7 93.7 274.2 95.3C365.7 97 457.3 130 548.8 143.5C640.3 157 731.7 151 823 133.8C914.3 116.7 1005.7 88.3 1097 78.5C1188.3 68.7 1279.7 77.3 1371.2 94.2C1462.7 111 1554.3 136 1645.8 141C1737.3 146 1828.7 131 1874.3 123.5L1920 116V0H1874.3C1828.7 0 1737.3 0 1645.8 0C1554.3 0 1462.7 0 1371.2 0C1279.7 0 1188.3 0 1097 0C1005.7 0 914.3 0 823 0C731.7 0 640.3 0 548.8 0C457.3 0 365.7 0 274.2 0C182.7 0 91.3 0 45.7 0H0V153Z" fill="#B1C381"/>
</svg>
